<svg width="16" height="16" viewBox="0 0 16 16" fill="none" xmlns="http://www.w3.org/2000/svg">
<path d="M3.95326 6.87996C4.07992 6.87996 4.20659 6.8333 4.30659 6.73329L7.99992 3.03996L11.6933 6.73329C11.8866 6.92663 12.2066 6.92663 12.3999 6.73329C12.5933 6.53996 12.5933 6.21996 12.3999 6.02663L8.35325 1.97996C8.15992 1.78663 7.83992 1.78663 7.64659 1.97996L3.59992 6.02663C3.40659 6.21996 3.40659 6.53996 3.59992 6.73329C3.69325 6.8333 3.82659 6.87996 3.95326 6.87996Z" fill="#34C759"/>
<path d="M8 14.1668C8.27333 14.1668 8.5 13.9401 8.5 13.6668L8.5 2.44678C8.5 2.17344 8.27333 1.94678 8 1.94678C7.72667 1.94678 7.5 2.17344 7.5 2.44678L7.5 13.6668C7.5 13.9401 7.72667 14.1668 8 14.1668Z" fill="#34C759"/>
</svg>
