<svg width="20" height="20" viewBox="0 0 20 20" fill="none" xmlns="http://www.w3.org/2000/svg">
<path d="M7.70106 3.97217L7.70137 3.97233L14.8347 7.53899C16.3622 8.30274 16.9583 9.22362 16.9583 10.0001C16.9583 10.7766 16.3622 11.6975 14.8347 12.4612L7.70137 16.0279C6.53156 16.6128 5.57113 16.9125 4.83405 16.9827C4.09483 17.0532 3.64927 16.8895 3.3996 16.6395C3.14987 16.3894 2.98679 15.9435 3.05784 15.2046C3.12866 14.4679 3.42877 13.5086 4.01354 12.341C4.01359 12.3409 4.01365 12.3408 4.0137 12.3407L4.73834 10.8998L4.73836 10.8998L4.7406 10.8952C5.01699 10.3314 5.01699 9.6772 4.7406 9.11337L4.74062 9.11336L4.73886 9.10984L4.01386 7.65984L4.0137 7.65953C3.42888 6.49192 3.12928 5.5326 3.05905 4.79601C2.98861 4.05733 3.15218 3.61126 3.40249 3.36096C3.65279 3.11065 4.09886 2.94708 4.83754 3.01752C5.57414 3.08775 6.53345 3.38735 7.70106 3.97217ZM7.86664 11.1251H12.3666C12.9845 11.1251 13.4916 10.6179 13.4916 10.0001C13.4916 9.3823 12.9845 8.87511 12.3666 8.87511H7.86664C7.24883 8.87511 6.74164 9.3823 6.74164 10.0001C6.74164 10.6179 7.24883 11.1251 7.86664 11.1251Z" fill="#4365DE" stroke="#4365DE"/>
</svg>
