<svg width="18" height="18" viewBox="0 0 18 18" fill="none" xmlns="http://www.w3.org/2000/svg">
    <path
        d="M14.2965 7.96211C14.0756 7.73125 13.8471 7.49336 13.7609 7.28418C13.6813 7.09258 13.6766 6.775 13.6719 6.46738C13.6631 5.89551 13.6537 5.24746 13.2031 4.79688C12.7525 4.34629 12.1045 4.33691 11.5326 4.32812C11.225 4.32344 10.9074 4.31875 10.7158 4.23906C10.5072 4.15293 10.2688 3.92441 10.0379 3.70352C9.63359 3.31504 9.17422 2.875 8.5625 2.875C7.95078 2.875 7.49199 3.31504 7.08711 3.70352C6.85625 3.92441 6.61836 4.15293 6.40918 4.23906C6.21875 4.31875 5.9 4.32344 5.59238 4.32812C5.02051 4.33691 4.37246 4.34629 3.92188 4.79688C3.47129 5.24746 3.46484 5.89551 3.45312 6.46738C3.44844 6.775 3.44375 7.09258 3.36406 7.28418C3.27793 7.49277 3.04941 7.73125 2.82852 7.96211C2.44004 8.36641 2 8.82578 2 9.4375C2 10.0492 2.44004 10.508 2.82852 10.9129C3.04941 11.1438 3.27793 11.3816 3.36406 11.5908C3.44375 11.7824 3.44844 12.1 3.45312 12.4076C3.46191 12.9795 3.47129 13.6275 3.92188 14.0781C4.37246 14.5287 5.02051 14.5381 5.59238 14.5469C5.9 14.5516 6.21758 14.5563 6.40918 14.6359C6.61777 14.7221 6.85625 14.9506 7.08711 15.1715C7.49141 15.56 7.95078 16 8.5625 16C9.17422 16 9.63301 15.56 10.0379 15.1715C10.2688 14.9506 10.5066 14.7221 10.7158 14.6359C10.9074 14.5563 11.225 14.5516 11.5326 14.5469C12.1045 14.5381 12.7525 14.5287 13.2031 14.0781C13.6537 13.6275 13.6631 12.9795 13.6719 12.4076C13.6766 12.1 13.6813 11.7824 13.7609 11.5908C13.8471 11.3822 14.0756 11.1438 14.2965 10.9129C14.685 10.5086 15.125 10.0492 15.125 9.4375C15.125 8.82578 14.685 8.36699 14.2965 7.96211ZM11.2379 8.36289L7.95664 11.6441C7.91311 11.6877 7.86141 11.7223 7.8045 11.7459C7.7476 11.7695 7.6866 11.7816 7.625 11.7816C7.5634 11.7816 7.5024 11.7695 7.4455 11.7459C7.38859 11.7223 7.33689 11.6877 7.29336 11.6441L5.88711 10.2379C5.79915 10.1499 5.74974 10.0306 5.74974 9.90625C5.74974 9.78186 5.79915 9.66257 5.88711 9.57461C5.97507 9.48665 6.09436 9.43724 6.21875 9.43724C6.34314 9.43724 6.46243 9.48665 6.55039 9.57461L7.625 10.6498L10.5746 7.69961C10.6182 7.65606 10.6699 7.62151 10.7268 7.59794C10.7837 7.57437 10.8447 7.56224 10.9062 7.56224C10.9678 7.56224 11.0288 7.57437 11.0857 7.59794C11.1426 7.62151 11.1943 7.65606 11.2379 7.69961C11.2814 7.74316 11.316 7.79486 11.3396 7.85177C11.3631 7.90867 11.3753 7.96966 11.3753 8.03125C11.3753 8.09284 11.3631 8.15383 11.3396 8.21073C11.316 8.26764 11.2814 8.31934 11.2379 8.36289Z"
        fill="#0781F1" />
    <path
        d="M11.2379 8.36289L7.95664 11.6441C7.91311 11.6877 7.86141 11.7223 7.8045 11.7459C7.7476 11.7695 7.6866 11.7816 7.625 11.7816C7.5634 11.7816 7.5024 11.7695 7.4455 11.7459C7.38859 11.7223 7.33689 11.6877 7.29336 11.6441L5.88711 10.2379C5.79915 10.1499 5.74974 10.0306 5.74974 9.90625C5.74974 9.78186 5.79915 9.66257 5.88711 9.57461C5.97507 9.48665 6.09436 9.43724 6.21875 9.43724C6.34314 9.43724 6.46243 9.48665 6.55039 9.57461L7.625 10.6498L10.5746 7.69961C10.6182 7.65606 10.6699 7.62151 10.7268 7.59794C10.7837 7.57437 10.8447 7.56224 10.9062 7.56224C10.9678 7.56224 11.0288 7.57437 11.0857 7.59794C11.1426 7.62151 11.1943 7.65606 11.2379 7.69961C11.2814 7.74316 11.316 7.79486 11.3396 7.85177C11.3631 7.90867 11.3753 7.96966 11.3753 8.03125C11.3753 8.09284 11.3631 8.15383 11.3396 8.21073C11.316 8.26764 11.2814 8.31934 11.2379 8.36289Z"
        fill="white" />
    <path
        d="M14.6718 6.45215L14.6718 6.45202C14.6714 6.4271 14.6711 6.40054 14.6708 6.37247C14.6654 5.85795 14.6545 4.83408 13.9102 4.08977C13.1659 3.34546 12.142 3.33464 11.6275 3.3292C11.5995 3.32891 11.5729 3.32863 11.548 3.32824L11.5479 3.32824C11.386 3.32577 11.265 3.32354 11.1631 3.31512C11.1339 3.31271 11.1113 3.31015 11.0944 3.30781C11.0775 3.29559 11.0547 3.27808 11.0256 3.25377C10.9424 3.18442 10.8509 3.09738 10.7299 2.98163C10.7127 2.96508 10.6944 2.94733 10.675 2.92856C10.3153 2.57953 9.58911 1.875 8.5625 1.875C7.53706 1.875 6.81146 2.57826 6.45165 2.92699C6.43171 2.94631 6.4129 2.96455 6.39522 2.98151C6.27374 3.09775 6.18252 3.18462 6.0994 3.25397C6.07026 3.27827 6.04762 3.29572 6.03079 3.30785C6.01397 3.31017 5.99149 3.31271 5.96245 3.31511C5.86034 3.32354 5.73907 3.32577 5.57715 3.32824L5.57702 3.32824C5.5521 3.32863 5.52554 3.32891 5.49747 3.3292C4.98295 3.33464 3.95908 3.34546 3.21477 4.08977C2.47618 4.82836 2.46193 5.84618 2.45478 6.35679C2.45433 6.38889 2.45391 6.41899 2.45333 6.4469L2.45332 6.44689L2.45324 6.45215C2.45077 6.61404 2.44854 6.735 2.44012 6.83692C2.43771 6.86609 2.43515 6.88867 2.43281 6.9056C2.42059 6.92254 2.40308 6.94526 2.37877 6.97442C2.30946 7.05755 2.22246 7.14904 2.10679 7.26993C2.09019 7.2872 2.07239 7.30555 2.05355 7.32496C1.70453 7.68472 1 8.41089 1 9.4375C1 10.4629 1.70326 11.1885 2.05199 11.5484C2.07128 11.5683 2.08949 11.587 2.10643 11.6047C2.22271 11.7262 2.3096 11.8175 2.37897 11.9006C2.40321 11.9297 2.42064 11.9523 2.43276 11.9691C2.43511 11.986 2.43769 12.0087 2.44012 12.0381C2.44854 12.14 2.45077 12.261 2.45324 12.4229L2.45324 12.423C2.45363 12.4479 2.45391 12.4745 2.4542 12.5025C2.45964 13.017 2.47046 14.0409 3.21477 14.7852C3.95908 15.5295 4.98295 15.5404 5.49747 15.5458C5.52554 15.5461 5.5521 15.5464 5.57702 15.5468L5.57715 15.5468C5.73904 15.5492 5.86 15.5515 5.96192 15.5599C5.99109 15.5623 6.01367 15.5649 6.0306 15.5672C6.04754 15.5794 6.07026 15.5969 6.09942 15.6212C6.18257 15.6906 6.27408 15.7776 6.39501 15.8933C6.41226 15.9099 6.43058 15.9276 6.44996 15.9464C6.80971 16.2955 7.53589 17 8.5625 17C9.58794 17 10.3135 16.2967 10.6734 15.948C10.6934 15.9286 10.7122 15.9103 10.73 15.8933C10.8514 15.7772 10.9425 15.6903 11.0256 15.621C11.0547 15.5968 11.0773 15.5794 11.0941 15.5672C11.111 15.5649 11.1337 15.5623 11.1631 15.5599C11.265 15.5515 11.386 15.5492 11.5479 15.5468L11.548 15.5468C11.5729 15.5464 11.5995 15.5461 11.6275 15.5458C12.142 15.5404 13.1659 15.5295 13.9102 14.7852C14.6545 14.0409 14.6654 13.017 14.6708 12.5025C14.6711 12.4745 14.6714 12.4479 14.6718 12.423L14.6718 12.4229C14.6742 12.261 14.6765 12.14 14.6849 12.0381C14.6873 12.0089 14.6899 11.9863 14.6922 11.9694C14.7044 11.9525 14.7219 11.9297 14.7462 11.9006C14.8156 11.8174 14.9026 11.7259 15.0183 11.605C15.0349 11.5877 15.0526 11.5694 15.0714 11.55C15.4205 11.1903 16.125 10.4641 16.125 9.4375C16.125 8.41206 15.4217 7.68646 15.073 7.32665C15.0536 7.30664 15.0353 7.28776 15.0183 7.27003C14.9022 7.14864 14.8153 7.05748 14.746 6.9744C14.7218 6.94533 14.7044 6.92273 14.6922 6.90592C14.6899 6.88896 14.6873 6.86628 14.6849 6.83692C14.6765 6.735 14.6742 6.61404 14.6718 6.45215Z"
        stroke="white" stroke-width="2" />
</svg>
