<svg width="259" height="277" viewBox="0 0 259 277" fill="none" xmlns="http://www.w3.org/2000/svg">
    <g clip-path="url(#clip0_58_127)">
        <path
            d="M177.068 103.838C176.594 100.998 175.742 98.0625 174.322 95.0327C173.091 92.3817 168.736 83.6711 158.889 79.4105C151.883 76.3808 145.35 77.0435 140.616 77.5169C134.367 78.1797 129.822 79.8839 127.834 80.6414C109.466 87.7424 80.6835 104.974 55.12 113.59C51.3328 114.821 43.0009 117.567 34.6691 114.158C32.7755 113.401 27.7575 111.318 25.2011 106.205C22.3607 100.524 24.1596 94.5593 25.4851 90.1094C27.1894 84.4286 29.4617 81.6828 34.0063 74.6765C36.3733 70.984 39.2137 65.966 44.9892 56.0246C52.1849 43.5268 55.7827 37.2779 59.0018 31.1237C60.9901 27.4312 61.9369 25.3483 64.0199 22.5079C65.2507 20.8983 69.606 15.3122 77.2751 10.4835C85.7963 5.18143 94.0334 3.66655 98.7674 2.90911C99.7142 2.71975 100.661 2.62507 101.702 2.43571C103.407 2.15167 105.206 1.96231 106.91 1.77295C118.745 4.80271 127.077 9.06331 130.485 10.8622C138.722 15.3122 155.007 24.4015 166.464 44.0002C177.352 62.7468 177.636 80.452 177.825 89.4466C177.92 96.0742 178.015 100.051 177.068 103.838Z"
            fill="#3788FF" />
        <path
            d="M256.22 82.7238C253.569 100.145 244.764 111.506 239.367 118.513C226.491 135.176 211.626 143.13 200.264 149.094C183.033 158.184 168.736 161.213 158.321 163.296C149.421 165.095 136.734 166.894 136.071 164.717C135.409 162.539 148.001 159.699 160.025 148.148C163.813 144.455 173.375 134.987 176.405 119.933C176.973 116.998 177.92 112.075 177.352 106.204C177.257 105.447 177.162 104.69 177.068 103.837C178.015 100.145 177.92 96.0737 177.825 89.6354C177.636 80.6408 177.352 62.9357 166.464 44.189C155.007 24.5903 138.722 15.501 130.485 11.0511C127.077 9.25214 118.745 4.99154 106.91 1.96178C129.349 -0.405218 152.262 1.67774 167.221 3.2873C187.861 5.55962 198.276 6.79046 206.987 9.9149C219.768 14.4595 236.337 20.4244 247.415 37.2774C259.913 56.4027 257.072 77.043 256.22 82.7238Z"
            fill="#1573FE" />
        <path
            d="M255.747 125.803C252.433 138.964 249.971 149 243.628 162.066C238.515 172.67 233.497 179.676 227.721 187.913C223.65 189.712 218.253 192.363 210.868 196.151C183.222 210.447 183.601 213.004 171.766 217.264C148.38 225.785 128.497 226.448 120.638 226.448C104.732 226.448 88.2579 223.702 83.7133 222.945C71.8783 220.957 66.0081 219.158 54.0784 218.874C39.9711 218.59 32.6808 220.767 28.2308 222.661C23.9702 224.46 22.4553 225.785 14.6916 230.898C12.1352 232.508 9.95758 233.928 7.9693 235.159C11.1884 229.288 13.6501 225.028 17.2479 219.536C27.6627 203.82 25.9585 200.316 36.468 187.061C42.1488 179.866 45.4626 177.309 48.1136 175.7C55.7827 170.871 63.1677 170.019 69.7006 169.261C79.5473 168.125 87.3111 169.356 93.844 170.492C102.839 171.912 105.206 173.427 112.307 175.037C126.603 178.256 138.249 177.309 147.812 176.457C165.517 174.942 178.488 170.492 185.684 167.936C195.246 164.527 207.839 160.077 221.662 149.947C226.207 146.633 234.633 140.479 243.249 130.064C252.244 119.176 256.41 109.708 258.208 110.37C258.208 110.56 259.25 111.412 255.747 125.803Z"
            fill="#1573FE" />
        <path
            d="M227.721 187.82C227.627 187.915 227.627 187.915 227.532 188.009C222.041 195.773 215.318 205.052 204.809 215.466C193.921 226.165 184.453 232.603 173.754 239.894C164.949 245.859 155.575 252.202 141.752 258.64C128.118 264.984 116.662 268.392 110.981 270.002C95.5482 274.263 83.2398 275.493 78.7898 275.967C70.9314 276.724 61.0847 277.482 48.2082 275.967C42.9061 275.304 36.5626 273.695 23.7808 270.475C16.3011 268.582 11.5671 267.162 6.92774 263.09C5.03414 261.386 1.53098 258.262 0.773542 253.338C0.110782 248.888 2.00438 245.291 3.14054 243.113C4.84478 239.988 6.26498 237.432 7.5905 235.065C9.57878 233.834 11.7564 232.414 14.3128 230.805C22.0765 225.692 23.5914 224.366 27.852 222.567C32.302 220.674 39.5923 218.496 53.6996 218.78C65.6293 219.064 71.5941 220.863 83.3344 222.851C87.8791 223.609 104.353 226.355 120.26 226.355C128.118 226.355 148.001 225.692 171.387 217.171C183.222 212.815 182.843 210.259 210.49 196.057C218.253 192.27 223.65 189.619 227.721 187.82Z"
            fill="#3788FF" />
    </g>
    <defs>
        <clipPath id="clip0_58_127">
            <rect width="257.435" height="275.897" fill="white"
                transform="translate(0.868225 0.825928)" />
        </clipPath>
    </defs>
</svg>
