<svg width="17" height="20" viewBox="0 0 17 20" fill="none" xmlns="http://www.w3.org/2000/svg">
<path d="M9.19434 1.4789L9.16677 1.46665L9.13814 1.45711C8.8511 1.36143 8.47315 1.32514 8.1428 1.48334L2.18729 4.13023C1.58374 4.31532 1.37494 4.90589 1.37494 5.32011V9.32428C1.37494 13.1172 3.10731 15.4571 4.85918 16.8316C5.72732 17.5128 6.59528 17.9542 7.25069 18.2259C7.57907 18.3621 7.85658 18.4566 8.05762 18.5179C8.15808 18.5485 8.24048 18.5712 8.30165 18.5867C8.33195 18.5944 8.35884 18.6009 8.38129 18.6058C8.3921 18.6082 8.40497 18.6109 8.41826 18.6133C8.4246 18.6145 8.43488 18.6164 8.44711 18.6182C8.4477 18.6182 8.4892 18.625 8.54009 18.625H8.67356H8.80703C8.85791 18.625 8.89942 18.6182 8.90001 18.6182C8.91223 18.6164 8.92252 18.6145 8.92885 18.6133C8.94214 18.6109 8.95501 18.6082 8.96583 18.6058C8.98827 18.6009 9.01516 18.5944 9.04547 18.5867C9.10663 18.5712 9.18904 18.5485 9.28949 18.5179C9.49054 18.4566 9.76805 18.3621 10.0964 18.2259C10.7518 17.9542 11.6198 17.5128 12.4879 16.8316C14.2398 15.4571 15.9722 13.1172 15.9722 9.32428V5.32011C15.9722 4.90589 15.7634 4.31532 15.1598 4.13023L9.19434 1.4789ZM6.89689 11.5014L7.33883 11.9433L7.78078 11.5014L11.9852 7.29698C11.9962 7.2859 12.004 7.28208 12.0068 7.28091C12.0084 7.28023 12.0094 7.27999 12.0098 7.27991L12.0102 7.27984L12.0104 7.27983L12.0105 7.27984L12.0109 7.27991C12.0113 7.27999 12.0123 7.28023 12.0139 7.28091C12.0167 7.28208 12.0245 7.2859 12.0356 7.29698C12.0467 7.30807 12.0505 7.31586 12.0517 7.31864C12.0523 7.32026 12.0526 7.32125 12.0527 7.32165L12.0527 7.32208L12.0527 7.3222L12.0527 7.32231L12.0527 7.32274C12.0526 7.32314 12.0523 7.32413 12.0517 7.32575C12.0505 7.32853 12.0467 7.33632 12.0356 7.34741L7.36405 12.0189C7.35637 12.0266 7.35036 12.0321 7.34591 12.036C7.34384 12.0361 7.34149 12.0361 7.33883 12.0361C7.33618 12.0361 7.33383 12.0361 7.33176 12.036C7.32731 12.0321 7.3213 12.0266 7.31362 12.0189L5.31154 10.0169C5.30045 10.0058 5.29663 9.99797 5.29546 9.9952C5.29478 9.99358 5.29454 9.99259 5.29446 9.99219L5.29439 9.99176L5.29439 9.99164L5.29439 9.99153L5.29446 9.9911C5.29454 9.9907 5.29478 9.98971 5.29546 9.98809C5.29663 9.98531 5.30045 9.97752 5.31154 9.96643C5.32262 9.95535 5.33042 9.95152 5.33319 9.95036C5.33481 9.94967 5.3358 9.94944 5.3362 9.94936L5.33663 9.94929L5.33675 9.94928L5.33687 9.94929L5.33729 9.94936C5.33769 9.94944 5.33868 9.94967 5.3403 9.95036C5.34308 9.95152 5.35087 9.95535 5.36196 9.96643L6.89689 11.5014Z" stroke="black" stroke-width="1.25"/>
</svg>
