<svg width="20" height="20" viewBox="0 0 20 20" fill="none" xmlns="http://www.w3.org/2000/svg">
<path d="M16.5938 2.9375H16.125V2.46875C16.125 2.20987 15.9151 2 15.6562 2C15.3974 2 15.1875 2.20987 15.1875 2.46875V2.9375H13.2812V2.46875C13.2812 2.20987 13.0714 2 12.8125 2C12.5536 2 12.3438 2.20987 12.3438 2.46875V2.9375H10.4688V2.46875C10.4688 2.20987 10.2589 2 10 2C9.74112 2 9.53125 2.20987 9.53125 2.46875V2.9375H7.65625V2.46875C7.65625 2.20987 7.44638 2 7.1875 2C6.92862 2 6.71875 2.20987 6.71875 2.46875V2.9375H4.8125V2.46875C4.8125 2.20987 4.60263 2 4.34375 2C4.08487 2 3.875 2.20987 3.875 2.46875V2.9375H3.40625C2.63084 2.9375 2 3.56834 2 4.34375V16.5938C2 17.3692 2.63084 18 3.40625 18H16.5938C17.3692 18 18 17.3692 18 16.5938V4.34375C18 3.56834 17.3692 2.9375 16.5938 2.9375ZM17.0625 16.5938C17.0625 16.8522 16.8522 17.0625 16.5938 17.0625H3.40625C3.14778 17.0625 2.9375 16.8522 2.9375 16.5938V6.6875H17.0625V16.5938ZM17.0625 5.75H2.9375V4.34375C2.9375 4.08528 3.14778 3.875 3.40625 3.875H3.875V4.34375C3.875 4.60263 4.08487 4.8125 4.34375 4.8125C4.60263 4.8125 4.8125 4.60263 4.8125 4.34375V3.875H6.71875V4.34375C6.71875 4.60263 6.92862 4.8125 7.1875 4.8125C7.44638 4.8125 7.65625 4.60263 7.65625 4.34375V3.875H9.53125V4.34375C9.53125 4.60263 9.74112 4.8125 10 4.8125C10.2589 4.8125 10.4688 4.60263 10.4688 4.34375V3.875H12.3438V4.34375C12.3438 4.60263 12.5536 4.8125 12.8125 4.8125C13.0714 4.8125 13.2812 4.60263 13.2812 4.34375V3.875H15.1875V4.34375C15.1875 4.60263 15.3974 4.8125 15.6562 4.8125C15.9151 4.8125 16.125 4.60263 16.125 4.34375V3.875H16.5938C16.8522 3.875 17.0625 4.08528 17.0625 4.34375V5.75Z" fill="black" fill-opacity="0.6"/>
<path d="M13.75 15.1875H13.2812V13.7813C13.2812 13.0058 12.6504 12.375 11.875 12.375H10.4688V11.3256C11.0143 11.1321 11.4062 10.6111 11.4062 10C11.4062 9.76181 11.3383 9.51906 11.2684 9.39697L10.4068 7.89209C10.3658 7.82044 10.3066 7.76089 10.2351 7.71947C10.1637 7.67806 10.0826 7.65625 10 7.65625C9.91743 7.65625 9.83632 7.67806 9.76488 7.71947C9.69345 7.76089 9.63422 7.82044 9.59319 7.89209L8.73163 9.39697C8.66291 9.51706 8.59375 9.75859 8.59375 10C8.59375 10.6111 8.98566 11.1321 9.53125 11.3256V12.375H8.125C7.34959 12.375 6.71875 13.0058 6.71875 13.7813V15.1875H6.25C5.99112 15.1875 5.78125 15.3974 5.78125 15.6563C5.78125 15.9151 5.99112 16.125 6.25 16.125H13.75C14.0089 16.125 14.2188 15.9151 14.2188 15.6563C14.2188 15.3974 14.0089 15.1875 13.75 15.1875ZM9.56075 9.83559L10 9.06841L10.4392 9.83559C10.4588 9.88784 10.4688 9.94303 10.4688 10C10.4688 10.2585 10.2585 10.4688 10 10.4688C9.74153 10.4688 9.53125 10.2585 9.53125 10C9.53125 9.94306 9.54116 9.88788 9.56075 9.83559ZM12.3438 15.1875H7.65625V13.7813C7.65625 13.5228 7.86653 13.3125 8.125 13.3125H11.875C12.1335 13.3125 12.3438 13.5228 12.3438 13.7813V15.1875Z" fill="black" fill-opacity="0.6"/>
</svg>
