<svg width="16" height="16" viewBox="0 0 16 16" fill="none" xmlns="http://www.w3.org/2000/svg">
<path d="M7.57566 10.9241C7.63133 10.9799 7.69748 11.0242 7.77032 11.0544C7.84312 11.0845 7.92116 11.1 7.99997 11.1V11C8.06564 11 8.13067 10.9871 8.19134 10.962C8.252 10.9368 8.3071 10.9 8.35347 10.8535L8.42418 10.9242L8.42428 10.9241L13.4242 5.9242C13.4242 5.9242 13.4242 5.92419 13.4242 5.92418C13.6587 5.68983 13.6584 5.31016 13.4242 5.07578C13.1899 4.84131 12.8102 4.84134 12.5758 5.07576L7.99997 9.65155L3.4242 5.07578C3.4242 5.07577 3.42419 5.07577 3.42418 5.07576C3.18983 4.84128 2.81016 4.84151 2.57578 5.07574C2.34131 5.31006 2.34134 5.68977 2.57576 5.92418L7.57566 10.9241ZM7.57566 10.9241L7.64647 10.8535L7.57576 10.9242L7.57566 10.9241Z" fill="black" stroke="black" stroke-width="0.2"/>
</svg>
