<svg width="20" height="20" viewBox="0 0 20 20" fill="none" xmlns="http://www.w3.org/2000/svg">
<path d="M16.8906 2.40625H16.0469V1H14.6406V2.40625H5.35938V1H3.95312V2.40625H3.10938C1.94627 2.40625 1 3.35252 1 4.51562V16.8906C1 18.0537 1.94627 19 3.10938 19H16.8906C18.0537 19 19 18.0537 19 16.8906V4.51562C19 3.35252 18.0537 2.40625 16.8906 2.40625ZM17.5938 16.8906C17.5938 17.2783 17.2783 17.5938 16.8906 17.5938H3.10938C2.72167 17.5938 2.40625 17.2783 2.40625 16.8906V7.60938H17.5938V16.8906ZM17.5938 6.20312H2.40625V4.51562C2.40625 4.12792 2.72167 3.8125 3.10938 3.8125H3.95312V5.21875H5.35938V3.8125H14.6406V5.21875H16.0469V3.8125H16.8906C17.2783 3.8125 17.5938 4.12792 17.5938 4.51562V6.20312Z" fill="black"/>
<path d="M3.67188 9.08594H5.07812V10.4922H3.67188V9.08594ZM6.48438 9.08594H7.89062V10.4922H6.48438V9.08594ZM9.29688 9.08594H10.7031V10.4922H9.29688V9.08594ZM12.1094 9.08594H13.5156V10.4922H12.1094V9.08594ZM14.9219 9.08594H16.3281V10.4922H14.9219V9.08594ZM3.67188 11.8984H5.07812V13.3047H3.67188V11.8984ZM6.48438 11.8984H7.89062V13.3047H6.48438V11.8984ZM9.29688 11.8984H10.7031V13.3047H9.29688V11.8984ZM12.1094 11.8984H13.5156V13.3047H12.1094V11.8984ZM3.67188 14.7109H5.07812V16.1172H3.67188V14.7109ZM6.48438 14.7109H7.89062V16.1172H6.48438V14.7109ZM9.29688 14.7109H10.7031V16.1172H9.29688V14.7109ZM12.1094 14.7109H13.5156V16.1172H12.1094V14.7109ZM14.9219 11.8984H16.3281V13.3047H14.9219V11.8984Z" fill="black"/>
</svg>
