<svg width="20" height="20" viewBox="0 0 20 20" fill="none" xmlns="http://www.w3.org/2000/svg">
<path fill-rule="evenodd" clip-rule="evenodd" d="M9.5346 1.1926C9.65809 1.06927 9.82548 1 10 1C10.1745 1 10.3419 1.06927 10.4654 1.1926L13.5388 4.26597C13.6621 4.38946 13.7314 4.55684 13.7314 4.73137C13.7314 4.90589 13.6621 5.07328 13.5388 5.19676L10.4654 8.27013C10.3419 8.39346 10.1745 8.46274 10 8.46274C9.82548 8.46274 9.65809 8.39346 9.5346 8.27013L6.46124 5.19676C6.33791 5.07328 6.26863 4.90589 6.26863 4.73137C6.26863 4.55684 6.33791 4.38946 6.46124 4.26597L9.5346 1.1926ZM7.85742 4.73137L10 6.87394L12.1426 4.73137L10 2.58879L7.85742 4.73137ZM9.5346 11.7299C9.65809 11.6065 9.82548 11.5373 10 11.5373C10.1745 11.5373 10.3419 11.6065 10.4654 11.7299L13.5388 14.8032C13.6621 14.9267 13.7314 15.0941 13.7314 15.2686C13.7314 15.4432 13.6621 15.6105 13.5388 15.734L10.4654 18.8074C10.3419 18.9307 10.1745 19 10 19C9.82548 19 9.65809 18.9307 9.5346 18.8074L6.46124 15.734C6.33791 15.6105 6.26863 15.4432 6.26863 15.2686C6.26863 15.0941 6.33791 14.9267 6.46124 14.8032L9.5346 11.7299ZM7.85742 15.2686L10 17.4112L12.1426 15.2686L10 13.1261L7.85742 15.2686ZM14.8032 6.46124C14.9267 6.33791 15.0941 6.26863 15.2686 6.26863C15.4432 6.26863 15.6105 6.33791 15.734 6.46124L18.8074 9.5346C18.9307 9.65809 19 9.82548 19 10C19 10.1745 18.9307 10.3419 18.8074 10.4654L15.734 13.5388C15.6105 13.6621 15.4432 13.7314 15.2686 13.7314C15.0941 13.7314 14.9267 13.6621 14.8032 13.5388L11.7299 10.4654C11.6065 10.3419 11.5373 10.1745 11.5373 10C11.5373 9.82548 11.6065 9.65809 11.7299 9.5346L14.8032 6.46124ZM13.1261 10L15.2686 12.1426L17.4112 10L15.2686 7.85742L13.1261 10ZM4.26597 6.46124C4.38946 6.33791 4.55684 6.26863 4.73137 6.26863C4.90589 6.26863 5.07328 6.33791 5.19676 6.46124L8.27013 9.5346C8.39346 9.65809 8.46274 9.82548 8.46274 10C8.46274 10.1745 8.39346 10.3419 8.27013 10.4654L5.19676 13.5388C5.07328 13.6621 4.90589 13.7314 4.73137 13.7314C4.55684 13.7314 4.38946 13.6621 4.26597 13.5388L1.1926 10.4654C1.06927 10.3419 1 10.1745 1 10C1 9.82548 1.06927 9.65809 1.1926 9.5346L4.26597 6.46124ZM2.58879 10L4.73137 12.1426L6.87394 10L4.73137 7.85742L2.58879 10Z" fill="black"/>
</svg>
