<svg width="20" height="20" viewBox="0 0 20 20" fill="none" xmlns="http://www.w3.org/2000/svg">
<g clip-path="url(#clip0_23_87)">
<path d="M17.7734 6.65234C17.9016 6.65241 18.0245 6.70334 18.1152 6.79395C18.206 6.88473 18.2568 7.00833 18.2568 7.13672V18.1064H18.5918C18.72 18.1066 18.8429 18.1583 18.9336 18.249C19.0243 18.3398 19.0752 18.4625 19.0752 18.5908C19.0752 18.7192 19.0244 18.8428 18.9336 18.9336C18.8429 19.0241 18.7199 19.0751 18.5918 19.0752H1.40918C1.28105 19.0751 1.15805 19.0241 1.06738 18.9336C0.976598 18.8428 0.925781 18.7192 0.925781 18.5908C0.925805 18.4625 0.97671 18.3398 1.06738 18.249C1.15808 18.1583 1.28093 18.1065 1.40918 18.1064H1.74316V12.0459C1.74316 11.9175 1.79496 11.7939 1.88574 11.7031C1.97646 11.6125 2.0993 11.5616 2.22754 11.5615H6.31836C6.44675 11.5615 6.57035 11.6123 6.66113 11.7031C6.75187 11.7939 6.80273 11.9175 6.80273 12.0459V18.1064H7.4707V9.59082C7.47073 9.46266 7.5218 9.33975 7.6123 9.24902C7.70309 9.15824 7.82669 9.10645 7.95508 9.10645H12.0459C12.1743 9.10645 12.2979 9.15824 12.3887 9.24902C12.4792 9.33975 12.5302 9.46267 12.5303 9.59082V18.1064H13.1982V7.13672L13.208 7.04102C13.2267 6.94817 13.2719 6.8619 13.3398 6.79395C13.4306 6.70316 13.5542 6.65234 13.6826 6.65234H17.7734ZM14.166 18.1064H17.2891V7.62012H14.166V18.1064ZM8.43945 18.1064H11.5615V10.0752H8.43945V18.1064ZM2.71191 18.1064H5.83496V12.5293H2.71191V18.1064ZM18.5918 0.924805L18.7002 0.9375C18.7358 0.945753 18.7707 0.958455 18.8037 0.974609C18.8696 1.00689 18.9275 1.05348 18.9727 1.11133C19.0178 1.16925 19.0492 1.23674 19.0645 1.30859C19.0721 1.34464 19.0759 1.38136 19.0752 1.41797L19.0605 1.52637L18.2422 4.79883C18.2161 4.9035 18.1563 4.997 18.0713 5.06348C18.0076 5.11331 17.9324 5.14581 17.8535 5.15918L17.7734 5.16602C17.7341 5.16589 17.6945 5.16078 17.6562 5.15137H17.6553C17.531 5.12012 17.4243 5.0406 17.3584 4.93066C17.2924 4.82066 17.2727 4.68891 17.3037 4.56445L17.7441 2.79688C15.6137 4.61429 13.2532 6.14206 10.7217 7.33691L10.1992 7.57812C7.42588 8.82261 4.48774 9.66157 1.47559 10.0703H1.47461C1.45322 10.0731 1.43173 10.0751 1.41016 10.0752H1.40918C1.28653 10.0752 1.16877 10.028 1.0791 9.94434C0.989434 9.86061 0.934166 9.74641 0.925781 9.62402C0.917476 9.50153 0.95659 9.3803 1.03418 9.28516C1.11183 9.19 1.22302 9.12777 1.34473 9.11133L1.89062 9.03223C4.61979 8.61211 7.2809 7.82639 9.80176 6.69531L10.3223 6.45508C12.849 5.26074 15.2002 3.72533 17.3125 1.89355H15.3184C15.1901 1.89348 15.0673 1.84169 14.9766 1.75098C14.8859 1.66022 14.835 1.53749 14.835 1.40918C14.835 1.28079 14.8858 1.15719 14.9766 1.06641C15.0673 0.975877 15.1902 0.924881 15.3184 0.924805H18.5918Z" fill="black" stroke="black" stroke-width="0.15"/>
</g>
<defs>
<clipPath id="clip0_23_87">
<rect width="20" height="20" fill="white"/>
</clipPath>
</defs>
</svg>
