<svg width="20" height="20" viewBox="0 0 20 20" fill="none" xmlns="http://www.w3.org/2000/svg">
<path d="M7.85547 1.9502C9.82525 1.95031 11.7064 2.72996 13.0166 4.09082H13.0176L13.0352 4.11133C14.5328 4.28854 15.9198 4.91191 17.0088 5.91016L17.2266 6.11914C19.4112 8.30845 19.6146 11.5341 17.9316 13.916L18.9512 17.1182L18.9688 17.1875C19.0302 17.5134 18.8007 17.8261 18.4727 17.8662L18.4014 17.8701C18.3333 17.8701 18.2657 17.8583 18.2021 17.835L18.1396 17.8076L15.0361 16.2295C14.1346 16.6129 13.141 16.8154 12.1436 16.8154C10.2151 16.8154 8.32957 16.083 6.96191 14.6523C6.26713 14.5694 5.59603 14.3907 4.96191 14.1201L1.85938 15.6982C1.7579 15.7498 1.64334 15.7701 1.53027 15.7568C1.41719 15.7435 1.3104 15.6968 1.22363 15.623C1.13709 15.5494 1.07431 15.452 1.04297 15.3428C1.01164 15.2334 1.01338 15.1172 1.04785 15.0088L2.06641 11.8066C1.33536 10.7719 0.950196 9.57583 0.950195 8.32812C0.950195 4.74312 4.10789 1.9502 7.85547 1.9502ZM12.1436 5.21387C8.96833 5.214 6.39355 7.5618 6.39355 10.4375C6.39356 13.3132 8.96833 15.661 12.1436 15.6611C13.0691 15.6611 13.9896 15.4564 14.8047 15.0693L14.8662 15.0439C14.9286 15.0226 14.9943 15.0118 15.0605 15.0127C15.1488 15.0139 15.2357 15.0361 15.3145 15.0762L17.4316 16.1523L16.7422 13.9863C16.7137 13.8969 16.7071 13.8014 16.7236 13.709C16.7402 13.6165 16.7791 13.5291 16.8369 13.4551L16.9629 13.2871C17.573 12.4389 17.8945 11.4583 17.8945 10.4375C17.8945 7.56172 15.3189 5.21387 12.1436 5.21387ZM7.85547 3.10449C4.68012 3.10449 2.10449 5.45234 2.10449 8.32812C2.10449 9.41687 2.46955 10.4603 3.16113 11.3457L3.20117 11.4033C3.23745 11.4635 3.26292 11.5301 3.27539 11.5996C3.28779 11.6689 3.2874 11.7398 3.27441 11.8086L3.25684 11.877L2.56641 14.043L4.68457 12.9668L4.74512 12.9395C4.80678 12.9166 4.87238 12.9042 4.93848 12.9033C5.02623 12.9022 5.11303 12.9215 5.19238 12.959H5.19336C5.43756 13.0748 5.68987 13.1737 5.94727 13.2559C5.48491 12.3902 5.23926 11.432 5.23926 10.4375C5.23926 7.14838 7.90315 4.51177 11.249 4.11328C10.2724 3.46432 9.08635 3.10457 7.85547 3.10449Z" fill="black" stroke="black" stroke-width="0.1"/>
<path d="M9.99948 10.9648C10.2907 10.9648 10.5268 10.7287 10.5268 10.4375C10.5268 10.1463 10.2907 9.91016 9.99948 9.91016C9.70824 9.91016 9.47214 10.1463 9.47214 10.4375C9.47214 10.7287 9.70824 10.9648 9.99948 10.9648Z" fill="black"/>
<path d="M12.1087 10.9648C12.3999 10.9648 12.636 10.7287 12.636 10.4375C12.636 10.1463 12.3999 9.91016 12.1087 9.91016C11.8174 9.91016 11.5813 10.1463 11.5813 10.4375C11.5813 10.7287 11.8174 10.9648 12.1087 10.9648Z" fill="black"/>
<path d="M14.2179 10.9648C14.5091 10.9648 14.7452 10.7287 14.7452 10.4375C14.7452 10.1463 14.5091 9.91016 14.2179 9.91016C13.9267 9.91016 13.6906 10.1463 13.6906 10.4375C13.6906 10.7287 13.9267 10.9648 14.2179 10.9648Z" fill="black"/>
</svg>
