<svg width="20" height="20" viewBox="0 0 20 20" fill="none" xmlns="http://www.w3.org/2000/svg">
<mask id="path-1-outside-1_23_133" maskUnits="userSpaceOnUse" x="1" y="0" width="18" height="20" fill="black">
<rect fill="white" x="1" width="18" height="20"/>
<path d="M18.3056 6.30942C18.2586 5.58541 17.6671 5.01838 16.959 5.01838C16.6318 5.01907 16.3163 5.14068 16.0734 5.35983C15.3544 4.6575 14.4568 4.05255 13.4632 3.60286C12.3365 3.09294 11.1651 2.82341 10.0758 2.82341C9.77529 2.82615 9.47515 2.84478 9.17662 2.87921C9.19158 2.77225 9.19555 2.66403 9.18847 2.55626C9.13172 1.68357 8.41941 1 7.56683 1C6.71425 1 6.00179 1.68357 5.94519 2.55589C5.92486 2.95515 6.0452 3.3489 6.28526 3.66857L6.33056 3.72916C5.92913 3.9563 5.54235 4.20842 5.17251 4.48403C5.02311 4.32461 4.84271 4.1974 4.64237 4.11022C4.44203 4.02305 4.22599 3.97774 4.00751 3.97708C3.15489 3.97708 2.44247 4.66087 2.3859 5.53297C2.36559 5.93224 2.48593 6.32599 2.72597 6.64569L2.98753 6.99548C2.36773 8.18747 2.00002 9.63893 2.00002 10.907C1.99776 11.969 2.20498 13.021 2.60981 14.0028C3.01465 14.9845 3.60915 15.8768 4.35928 16.6286C5.10941 17.3803 6.00044 17.9767 6.98136 18.3836C7.96228 18.7905 9.01383 19 10.0758 19C11.1378 19 12.1893 18.7905 13.1703 18.3836C14.1512 17.9767 15.0422 17.3803 15.7923 16.6286C16.5425 15.8768 17.137 14.9845 17.5418 14.0028C17.9466 13.021 18.1539 11.969 18.1516 10.907C18.1516 10.007 17.9224 8.6572 17.623 7.76794L18.0236 7.23225C18.225 6.96828 18.3251 6.64086 18.3056 6.30942ZM6.38303 2.58471C6.4196 2.02159 6.87247 1.4388 7.56683 1.4388C8.26119 1.4388 8.71395 2.02144 8.75063 2.58529C8.76692 2.88034 8.67693 3.17146 8.49697 3.40584L7.56683 4.65001L6.63827 3.408C6.45965 3.1718 6.36935 2.88052 6.38303 2.58471ZM2.82386 5.56179C2.86042 4.99867 3.31326 4.41587 4.00762 4.41587C4.70197 4.41587 5.15477 4.99852 5.19141 5.56241C5.20774 5.85745 5.11774 6.14857 4.93775 6.38292L4.00751 7.62709L3.07905 6.38508C2.90045 6.14887 2.81016 5.8576 2.82386 5.56179ZM3.28174 7.389L3.83199 8.12486C3.85242 8.15219 3.87894 8.17437 3.90944 8.18965C3.93994 8.20494 3.97359 8.21289 4.00771 8.21289C4.04182 8.21289 4.07547 8.20494 4.10598 8.18965C4.13648 8.17437 4.163 8.15219 4.18343 8.12486L5.28904 6.64583C5.48484 6.39068 5.60237 6.08418 5.62738 5.76354C5.65239 5.44289 5.5838 5.12188 5.42993 4.83946C5.80157 4.56227 6.19109 4.3099 6.59596 4.084L7.39117 5.14764C7.41159 5.17496 7.43811 5.19715 7.46862 5.21243C7.49912 5.22771 7.53277 5.23567 7.56689 5.23567C7.601 5.23567 7.63465 5.22771 7.66515 5.21243C7.69566 5.19715 7.72218 5.17496 7.7426 5.14764L8.8483 3.66864C8.92556 3.56566 8.99128 3.45451 9.04425 3.33717C9.13541 3.32551 9.2265 3.31461 9.31631 3.3055L10.2378 4.63491C10.3445 4.78825 10.3996 4.97166 10.3948 5.15844C10.3901 5.34522 10.3259 5.52562 10.2116 5.67339L9.95132 6.01137C9.88782 6.09352 9.804 6.15769 9.70812 6.19755C9.61225 6.23741 9.50764 6.25158 9.40461 6.23867L9.10938 6.20093C8.90134 6.17424 8.69005 6.20929 8.50178 6.30172C8.3135 6.39416 8.15656 6.5399 8.05046 6.72083C7.99069 6.82274 7.90231 6.90485 7.79628 6.95697C7.69026 7.00908 7.57126 7.02891 7.45406 7.01398L6.77239 6.92732C6.56851 6.9008 6.36127 6.93165 6.17395 7.01641C5.98663 7.10116 5.82665 7.23646 5.71197 7.4071C5.60466 7.56563 5.54593 7.75202 5.54299 7.94343C5.54004 8.13484 5.593 8.32295 5.69537 8.48471L6.14568 9.19648C6.22867 9.32688 6.34327 9.43419 6.47884 9.50845C6.6144 9.58271 6.76654 9.6215 6.92111 9.62123C7.07086 9.62135 7.2183 9.58435 7.35025 9.51354L7.81391 9.26489C8.04106 9.14309 8.40994 9.14188 8.67581 9.25143C8.70119 9.58004 8.81894 9.89477 9.01548 10.1593L10.1214 11.6388C10.1418 11.6661 10.1683 11.6883 10.1988 11.7036C10.2293 11.7189 10.263 11.7268 10.2971 11.7268C10.3312 11.7268 10.3649 11.7189 10.3954 11.7036C10.4259 11.6883 10.4524 11.6661 10.4728 11.6388L11.0337 10.8885L11.105 10.9862C11.1354 11.0286 11.1675 11.0697 11.2013 11.1095L11.7644 11.7727C11.7895 11.8023 11.8083 11.8366 11.8197 11.8737C11.8312 11.9107 11.835 11.9497 11.8309 11.9883C11.8268 12.0268 11.8149 12.0642 11.796 12.098C11.777 12.1318 11.7514 12.1615 11.7207 12.1851L10.8673 12.8413C10.6402 13.0152 10.4731 13.2558 10.3895 13.5294L10.105 14.4527C10.0827 14.5256 10.0461 14.5932 9.99735 14.6518L9.72058 14.985C9.51441 15.2327 9.38677 15.5363 9.35397 15.8569C9.34596 15.9348 9.3171 16.0092 9.27043 16.0722C9.22377 16.1351 9.16101 16.1844 9.08876 16.2147C9.05847 16.2274 9.0257 16.2331 8.99291 16.2313C8.96012 16.2295 8.92816 16.2203 8.89943 16.2044C8.8707 16.1885 8.84593 16.1664 8.82699 16.1395C8.80806 16.1127 8.79544 16.0819 8.79008 16.0495L8.52936 14.4838C8.49682 14.2892 8.4174 14.1055 8.29797 13.9485L7.34283 12.695C7.25701 12.5825 7.19355 12.4547 7.1559 12.3183L6.84066 11.18C6.78493 10.9806 6.67857 10.799 6.5319 10.6528C6.38523 10.5066 6.20324 10.4009 6.00362 10.3458L5.9351 10.3271C5.79643 10.2891 5.66918 10.2177 5.56446 10.1192L4.97651 9.5651C4.88286 9.4769 4.80251 9.37557 4.73799 9.26427C4.60117 9.02837 4.39409 8.84109 4.14567 8.72858C3.89725 8.61608 3.6199 8.58396 3.35235 8.63672C3.34378 8.6384 3.33531 8.6406 3.32701 8.6433L2.73789 8.83494C2.87533 8.33759 3.05735 7.85365 3.28174 7.389ZM9.1134 9.07573C9.14997 8.51261 9.6028 7.92982 10.2972 7.92982C10.9915 7.92982 11.4443 8.51247 11.481 9.07636C11.4973 9.3714 11.4073 9.66251 11.2273 9.89687L10.2972 11.141L9.3686 9.89902C9.18999 9.66282 9.09971 9.37155 9.1134 9.07573ZM17.7128 10.907C17.7128 15.1224 14.2868 18.5518 10.0758 18.5518C5.86474 18.5518 2.43881 15.1224 2.43881 10.907C2.4424 10.3788 2.50132 9.85239 2.61462 9.33645L3.44954 9.06487C3.62582 9.03272 3.80773 9.05577 3.97042 9.13087C4.13311 9.20597 4.26866 9.32946 4.35854 9.48447C4.44436 9.63246 4.5512 9.7672 4.67572 9.88451L5.2637 10.4384C5.42083 10.5862 5.61173 10.6932 5.81973 10.7502L5.88826 10.7689C6.01457 10.8038 6.12971 10.8708 6.22249 10.9633C6.31527 11.0559 6.38254 11.1708 6.41777 11.2971L6.73301 12.4355C6.78552 12.6258 6.87405 12.8042 6.9938 12.9611L7.94895 14.2146C8.02513 14.3148 8.07578 14.432 8.09653 14.5561L8.35725 16.1218C8.37331 16.2196 8.41134 16.3125 8.46847 16.3935C8.52561 16.4744 8.60037 16.5414 8.68711 16.5893C8.77386 16.6372 8.87035 16.6648 8.9693 16.67C9.06826 16.6752 9.16711 16.6579 9.25842 16.6194C9.40331 16.5586 9.52916 16.4599 9.62275 16.3337C9.71633 16.2075 9.7742 16.0584 9.79028 15.9021C9.81423 15.6679 9.90743 15.4463 10.058 15.2653L10.3348 14.9322C10.4205 14.8291 10.4849 14.71 10.5242 14.5818L10.8086 13.6585C10.8657 13.4719 10.9796 13.3079 11.1345 13.1892L11.9882 12.533C12.066 12.4731 12.1309 12.3981 12.1789 12.3124C12.2269 12.2267 12.2569 12.1322 12.2673 12.0346C12.2776 11.9369 12.2681 11.8382 12.2391 11.7443C12.2102 11.6505 12.1625 11.5635 12.0989 11.4887L11.5358 10.8254C11.5095 10.7944 11.4845 10.7623 11.4608 10.7292L11.3088 10.5208L11.5787 10.1598C11.8214 9.84157 11.9421 9.44686 11.9187 9.04729C11.862 8.17459 11.1497 7.49102 10.2971 7.49102C9.52664 7.49102 8.871 8.04928 8.70978 8.8005C8.34533 8.69307 7.90898 8.7164 7.60658 8.87846L7.14292 9.12711C7.0369 9.18346 6.91354 9.19777 6.79744 9.16719C6.68134 9.13661 6.58104 9.06338 6.51654 8.96212L6.06619 8.25032C6.00946 8.1607 5.98011 8.05647 5.98175 7.95041C5.98338 7.84435 6.01591 7.74107 6.07537 7.65323C6.14476 7.54996 6.24157 7.46808 6.35492 7.41679C6.46828 7.36549 6.59369 7.34682 6.71707 7.36286L7.39874 7.44949C7.60113 7.47536 7.80667 7.44119 7.9898 7.35121C8.17294 7.26122 8.32558 7.1194 8.42877 6.94337C8.49132 6.83651 8.58393 6.7504 8.69507 6.69579C8.8062 6.64117 8.93094 6.62045 9.05376 6.63621L9.34896 6.67395C9.52798 6.69641 9.70977 6.67179 9.87637 6.60254C10.043 6.53328 10.1886 6.42178 10.299 6.27904L10.5593 5.94105C10.7306 5.71963 10.8269 5.44928 10.8339 5.16938C10.8409 4.88947 10.7585 4.61463 10.5984 4.38487L9.8241 3.26806C9.91285 3.2644 9.99732 3.26221 10.0758 3.26221C11.1033 3.26221 12.212 3.51817 13.2822 4.00264C13.6176 4.1548 13.9434 4.32697 14.2581 4.51822L13.6687 5.52844C13.5842 5.67669 13.548 5.84757 13.565 6.01735C13.5821 6.18713 13.6515 6.3474 13.7638 6.47591C13.9331 6.66989 14.1681 6.79453 14.4237 6.82592L14.5306 6.83908C14.6341 6.85191 14.7316 6.89448 14.8113 6.96165C14.891 7.02881 14.9495 7.11767 14.9797 7.21744C15.0083 7.31222 15.0091 7.41321 14.9821 7.50846C14.9552 7.60371 14.9015 7.68924 14.8274 7.75496L13.7691 8.69076C13.6618 8.78569 13.5759 8.90231 13.517 9.03292C13.4582 9.16352 13.4278 9.30513 13.4277 9.44838V9.6967C13.4274 9.84386 13.4641 9.98873 13.5345 10.118C13.6048 10.2472 13.7066 10.3567 13.8304 10.4363C13.8919 10.4758 13.9437 10.5288 13.9818 10.5912C14.0199 10.6537 14.0434 10.7239 14.0505 10.7967L14.0753 11.0446C14.0947 11.2454 14.1882 11.4316 14.3377 11.567C14.4871 11.7024 14.6817 11.7771 14.8834 11.7766H15.5028C15.7595 11.7765 16.0105 11.7017 16.2253 11.5613C16.4401 11.4209 16.6094 11.2209 16.7125 10.9859L16.7497 10.901C16.7862 10.8169 16.8456 10.7447 16.9212 10.6928C16.9968 10.6409 17.0854 10.6113 17.1771 10.6075L17.3224 10.6009C17.3461 10.5998 17.3697 10.5981 17.3932 10.5957L17.7022 10.5646C17.7091 10.6848 17.7128 10.7998 17.7128 10.907ZM17.6658 10.1269L17.3493 10.1588C17.3338 10.1604 17.3183 10.1615 17.3027 10.1622L17.1571 10.1688C16.9836 10.1761 16.8157 10.2321 16.6726 10.3304C16.5294 10.4287 16.4169 10.5653 16.3478 10.7246L16.3106 10.8095C16.2418 10.9665 16.1288 11.1 15.9853 11.1938C15.8419 11.2876 15.6742 11.3375 15.5028 11.3376H14.8833C14.7906 11.3378 14.7011 11.3034 14.6324 11.2411C14.5637 11.1789 14.5207 11.0932 14.5118 11.0009L14.487 10.7529C14.4735 10.6145 14.4289 10.4808 14.3564 10.3621C14.2838 10.2434 14.1854 10.1427 14.0683 10.0675C14.0062 10.0276 13.9552 9.97264 13.9199 9.90782C13.8847 9.84299 13.8663 9.77032 13.8664 9.69652V9.4482C13.8664 9.36711 13.8837 9.28694 13.917 9.21301C13.9503 9.13907 13.9989 9.07305 14.0596 9.01931L15.118 8.08351C15.2548 7.96207 15.354 7.80402 15.4039 7.62802C15.4538 7.45203 15.4523 7.26543 15.3995 7.09026C15.3447 6.90915 15.2384 6.74785 15.0937 6.62595C14.9489 6.50404 14.7719 6.42677 14.5841 6.40351L14.4772 6.39034C14.3288 6.37212 14.1923 6.29973 14.0939 6.18707C14.0418 6.12752 14.0095 6.05326 14.0014 5.97454C13.9933 5.89583 14.0098 5.81654 14.0487 5.74762L14.6279 4.75488C15.0453 5.03432 15.4362 5.3515 15.7956 5.70242C15.6888 5.88803 15.6261 6.09572 15.6124 6.30942C15.5954 6.64058 15.6951 6.9672 15.8942 7.23239L16.7833 8.42123C16.8037 8.44855 16.8302 8.47073 16.8607 8.48601C16.8912 8.50128 16.9249 8.50924 16.959 8.50924C16.9931 8.50924 17.0267 8.50128 17.0572 8.48601C17.0877 8.47073 17.1143 8.44855 17.1347 8.42123L17.2982 8.2026C17.4728 8.833 17.5957 9.47657 17.6658 10.1269ZM17.6724 6.96919L16.959 7.92309L16.2472 6.97127C16.1096 6.78961 16.0399 6.56549 16.0502 6.3378C16.0784 5.90485 16.426 5.45706 16.959 5.45706C17.492 5.45706 17.8396 5.90485 17.8678 6.33831C17.8803 6.56523 17.8109 6.7891 17.6723 6.96922L17.6724 6.96919Z"/>
</mask>
<path d="M18.3056 6.30942C18.2586 5.58541 17.6671 5.01838 16.959 5.01838C16.6318 5.01907 16.3163 5.14068 16.0734 5.35983C15.3544 4.6575 14.4568 4.05255 13.4632 3.60286C12.3365 3.09294 11.1651 2.82341 10.0758 2.82341C9.77529 2.82615 9.47515 2.84478 9.17662 2.87921C9.19158 2.77225 9.19555 2.66403 9.18847 2.55626C9.13172 1.68357 8.41941 1 7.56683 1C6.71425 1 6.00179 1.68357 5.94519 2.55589C5.92486 2.95515 6.0452 3.3489 6.28526 3.66857L6.33056 3.72916C5.92913 3.9563 5.54235 4.20842 5.17251 4.48403C5.02311 4.32461 4.84271 4.1974 4.64237 4.11022C4.44203 4.02305 4.22599 3.97774 4.00751 3.97708C3.15489 3.97708 2.44247 4.66087 2.3859 5.53297C2.36559 5.93224 2.48593 6.32599 2.72597 6.64569L2.98753 6.99548C2.36773 8.18747 2.00002 9.63893 2.00002 10.907C1.99776 11.969 2.20498 13.021 2.60981 14.0028C3.01465 14.9845 3.60915 15.8768 4.35928 16.6286C5.10941 17.3803 6.00044 17.9767 6.98136 18.3836C7.96228 18.7905 9.01383 19 10.0758 19C11.1378 19 12.1893 18.7905 13.1703 18.3836C14.1512 17.9767 15.0422 17.3803 15.7923 16.6286C16.5425 15.8768 17.137 14.9845 17.5418 14.0028C17.9466 13.021 18.1539 11.969 18.1516 10.907C18.1516 10.007 17.9224 8.6572 17.623 7.76794L18.0236 7.23225C18.225 6.96828 18.3251 6.64086 18.3056 6.30942ZM6.38303 2.58471C6.4196 2.02159 6.87247 1.4388 7.56683 1.4388C8.26119 1.4388 8.71395 2.02144 8.75063 2.58529C8.76692 2.88034 8.67693 3.17146 8.49697 3.40584L7.56683 4.65001L6.63827 3.408C6.45965 3.1718 6.36935 2.88052 6.38303 2.58471ZM2.82386 5.56179C2.86042 4.99867 3.31326 4.41587 4.00762 4.41587C4.70197 4.41587 5.15477 4.99852 5.19141 5.56241C5.20774 5.85745 5.11774 6.14857 4.93775 6.38292L4.00751 7.62709L3.07905 6.38508C2.90045 6.14887 2.81016 5.8576 2.82386 5.56179ZM3.28174 7.389L3.83199 8.12486C3.85242 8.15219 3.87894 8.17437 3.90944 8.18965C3.93994 8.20494 3.97359 8.21289 4.00771 8.21289C4.04182 8.21289 4.07547 8.20494 4.10598 8.18965C4.13648 8.17437 4.163 8.15219 4.18343 8.12486L5.28904 6.64583C5.48484 6.39068 5.60237 6.08418 5.62738 5.76354C5.65239 5.44289 5.5838 5.12188 5.42993 4.83946C5.80157 4.56227 6.19109 4.3099 6.59596 4.084L7.39117 5.14764C7.41159 5.17496 7.43811 5.19715 7.46862 5.21243C7.49912 5.22771 7.53277 5.23567 7.56689 5.23567C7.601 5.23567 7.63465 5.22771 7.66515 5.21243C7.69566 5.19715 7.72218 5.17496 7.7426 5.14764L8.8483 3.66864C8.92556 3.56566 8.99128 3.45451 9.04425 3.33717C9.13541 3.32551 9.2265 3.31461 9.31631 3.3055L10.2378 4.63491C10.3445 4.78825 10.3996 4.97166 10.3948 5.15844C10.3901 5.34522 10.3259 5.52562 10.2116 5.67339L9.95132 6.01137C9.88782 6.09352 9.804 6.15769 9.70812 6.19755C9.61225 6.23741 9.50764 6.25158 9.40461 6.23867L9.10938 6.20093C8.90134 6.17424 8.69005 6.20929 8.50178 6.30172C8.3135 6.39416 8.15656 6.5399 8.05046 6.72083C7.99069 6.82274 7.90231 6.90485 7.79628 6.95697C7.69026 7.00908 7.57126 7.02891 7.45406 7.01398L6.77239 6.92732C6.56851 6.9008 6.36127 6.93165 6.17395 7.01641C5.98663 7.10116 5.82665 7.23646 5.71197 7.4071C5.60466 7.56563 5.54593 7.75202 5.54299 7.94343C5.54004 8.13484 5.593 8.32295 5.69537 8.48471L6.14568 9.19648C6.22867 9.32688 6.34327 9.43419 6.47884 9.50845C6.6144 9.58271 6.76654 9.6215 6.92111 9.62123C7.07086 9.62135 7.2183 9.58435 7.35025 9.51354L7.81391 9.26489C8.04106 9.14309 8.40994 9.14188 8.67581 9.25143C8.70119 9.58004 8.81894 9.89477 9.01548 10.1593L10.1214 11.6388C10.1418 11.6661 10.1683 11.6883 10.1988 11.7036C10.2293 11.7189 10.263 11.7268 10.2971 11.7268C10.3312 11.7268 10.3649 11.7189 10.3954 11.7036C10.4259 11.6883 10.4524 11.6661 10.4728 11.6388L11.0337 10.8885L11.105 10.9862C11.1354 11.0286 11.1675 11.0697 11.2013 11.1095L11.7644 11.7727C11.7895 11.8023 11.8083 11.8366 11.8197 11.8737C11.8312 11.9107 11.835 11.9497 11.8309 11.9883C11.8268 12.0268 11.8149 12.0642 11.796 12.098C11.777 12.1318 11.7514 12.1615 11.7207 12.1851L10.8673 12.8413C10.6402 13.0152 10.4731 13.2558 10.3895 13.5294L10.105 14.4527C10.0827 14.5256 10.0461 14.5932 9.99735 14.6518L9.72058 14.985C9.51441 15.2327 9.38677 15.5363 9.35397 15.8569C9.34596 15.9348 9.3171 16.0092 9.27043 16.0722C9.22377 16.1351 9.16101 16.1844 9.08876 16.2147C9.05847 16.2274 9.0257 16.2331 8.99291 16.2313C8.96012 16.2295 8.92816 16.2203 8.89943 16.2044C8.8707 16.1885 8.84593 16.1664 8.82699 16.1395C8.80806 16.1127 8.79544 16.0819 8.79008 16.0495L8.52936 14.4838C8.49682 14.2892 8.4174 14.1055 8.29797 13.9485L7.34283 12.695C7.25701 12.5825 7.19355 12.4547 7.1559 12.3183L6.84066 11.18C6.78493 10.9806 6.67857 10.799 6.5319 10.6528C6.38523 10.5066 6.20324 10.4009 6.00362 10.3458L5.9351 10.3271C5.79643 10.2891 5.66918 10.2177 5.56446 10.1192L4.97651 9.5651C4.88286 9.4769 4.80251 9.37557 4.73799 9.26427C4.60117 9.02837 4.39409 8.84109 4.14567 8.72858C3.89725 8.61608 3.6199 8.58396 3.35235 8.63672C3.34378 8.6384 3.33531 8.6406 3.32701 8.6433L2.73789 8.83494C2.87533 8.33759 3.05735 7.85365 3.28174 7.389ZM9.1134 9.07573C9.14997 8.51261 9.6028 7.92982 10.2972 7.92982C10.9915 7.92982 11.4443 8.51247 11.481 9.07636C11.4973 9.3714 11.4073 9.66251 11.2273 9.89687L10.2972 11.141L9.3686 9.89902C9.18999 9.66282 9.09971 9.37155 9.1134 9.07573ZM17.7128 10.907C17.7128 15.1224 14.2868 18.5518 10.0758 18.5518C5.86474 18.5518 2.43881 15.1224 2.43881 10.907C2.4424 10.3788 2.50132 9.85239 2.61462 9.33645L3.44954 9.06487C3.62582 9.03272 3.80773 9.05577 3.97042 9.13087C4.13311 9.20597 4.26866 9.32946 4.35854 9.48447C4.44436 9.63246 4.5512 9.7672 4.67572 9.88451L5.2637 10.4384C5.42083 10.5862 5.61173 10.6932 5.81973 10.7502L5.88826 10.7689C6.01457 10.8038 6.12971 10.8708 6.22249 10.9633C6.31527 11.0559 6.38254 11.1708 6.41777 11.2971L6.73301 12.4355C6.78552 12.6258 6.87405 12.8042 6.9938 12.9611L7.94895 14.2146C8.02513 14.3148 8.07578 14.432 8.09653 14.5561L8.35725 16.1218C8.37331 16.2196 8.41134 16.3125 8.46847 16.3935C8.52561 16.4744 8.60037 16.5414 8.68711 16.5893C8.77386 16.6372 8.87035 16.6648 8.9693 16.67C9.06826 16.6752 9.16711 16.6579 9.25842 16.6194C9.40331 16.5586 9.52916 16.4599 9.62275 16.3337C9.71633 16.2075 9.7742 16.0584 9.79028 15.9021C9.81423 15.6679 9.90743 15.4463 10.058 15.2653L10.3348 14.9322C10.4205 14.8291 10.4849 14.71 10.5242 14.5818L10.8086 13.6585C10.8657 13.4719 10.9796 13.3079 11.1345 13.1892L11.9882 12.533C12.066 12.4731 12.1309 12.3981 12.1789 12.3124C12.2269 12.2267 12.2569 12.1322 12.2673 12.0346C12.2776 11.9369 12.2681 11.8382 12.2391 11.7443C12.2102 11.6505 12.1625 11.5635 12.0989 11.4887L11.5358 10.8254C11.5095 10.7944 11.4845 10.7623 11.4608 10.7292L11.3088 10.5208L11.5787 10.1598C11.8214 9.84157 11.9421 9.44686 11.9187 9.04729C11.862 8.17459 11.1497 7.49102 10.2971 7.49102C9.52664 7.49102 8.871 8.04928 8.70978 8.8005C8.34533 8.69307 7.90898 8.7164 7.60658 8.87846L7.14292 9.12711C7.0369 9.18346 6.91354 9.19777 6.79744 9.16719C6.68134 9.13661 6.58104 9.06338 6.51654 8.96212L6.06619 8.25032C6.00946 8.1607 5.98011 8.05647 5.98175 7.95041C5.98338 7.84435 6.01591 7.74107 6.07537 7.65323C6.14476 7.54996 6.24157 7.46808 6.35492 7.41679C6.46828 7.36549 6.59369 7.34682 6.71707 7.36286L7.39874 7.44949C7.60113 7.47536 7.80667 7.44119 7.9898 7.35121C8.17294 7.26122 8.32558 7.1194 8.42877 6.94337C8.49132 6.83651 8.58393 6.7504 8.69507 6.69579C8.8062 6.64117 8.93094 6.62045 9.05376 6.63621L9.34896 6.67395C9.52798 6.69641 9.70977 6.67179 9.87637 6.60254C10.043 6.53328 10.1886 6.42178 10.299 6.27904L10.5593 5.94105C10.7306 5.71963 10.8269 5.44928 10.8339 5.16938C10.8409 4.88947 10.7585 4.61463 10.5984 4.38487L9.8241 3.26806C9.91285 3.2644 9.99732 3.26221 10.0758 3.26221C11.1033 3.26221 12.212 3.51817 13.2822 4.00264C13.6176 4.1548 13.9434 4.32697 14.2581 4.51822L13.6687 5.52844C13.5842 5.67669 13.548 5.84757 13.565 6.01735C13.5821 6.18713 13.6515 6.3474 13.7638 6.47591C13.9331 6.66989 14.1681 6.79453 14.4237 6.82592L14.5306 6.83908C14.6341 6.85191 14.7316 6.89448 14.8113 6.96165C14.891 7.02881 14.9495 7.11767 14.9797 7.21744C15.0083 7.31222 15.0091 7.41321 14.9821 7.50846C14.9552 7.60371 14.9015 7.68924 14.8274 7.75496L13.7691 8.69076C13.6618 8.78569 13.5759 8.90231 13.517 9.03292C13.4582 9.16352 13.4278 9.30513 13.4277 9.44838V9.6967C13.4274 9.84386 13.4641 9.98873 13.5345 10.118C13.6048 10.2472 13.7066 10.3567 13.8304 10.4363C13.8919 10.4758 13.9437 10.5288 13.9818 10.5912C14.0199 10.6537 14.0434 10.7239 14.0505 10.7967L14.0753 11.0446C14.0947 11.2454 14.1882 11.4316 14.3377 11.567C14.4871 11.7024 14.6817 11.7771 14.8834 11.7766H15.5028C15.7595 11.7765 16.0105 11.7017 16.2253 11.5613C16.4401 11.4209 16.6094 11.2209 16.7125 10.9859L16.7497 10.901C16.7862 10.8169 16.8456 10.7447 16.9212 10.6928C16.9968 10.6409 17.0854 10.6113 17.1771 10.6075L17.3224 10.6009C17.3461 10.5998 17.3697 10.5981 17.3932 10.5957L17.7022 10.5646C17.7091 10.6848 17.7128 10.7998 17.7128 10.907ZM17.6658 10.1269L17.3493 10.1588C17.3338 10.1604 17.3183 10.1615 17.3027 10.1622L17.1571 10.1688C16.9836 10.1761 16.8157 10.2321 16.6726 10.3304C16.5294 10.4287 16.4169 10.5653 16.3478 10.7246L16.3106 10.8095C16.2418 10.9665 16.1288 11.1 15.9853 11.1938C15.8419 11.2876 15.6742 11.3375 15.5028 11.3376H14.8833C14.7906 11.3378 14.7011 11.3034 14.6324 11.2411C14.5637 11.1789 14.5207 11.0932 14.5118 11.0009L14.487 10.7529C14.4735 10.6145 14.4289 10.4808 14.3564 10.3621C14.2838 10.2434 14.1854 10.1427 14.0683 10.0675C14.0062 10.0276 13.9552 9.97264 13.9199 9.90782C13.8847 9.84299 13.8663 9.77032 13.8664 9.69652V9.4482C13.8664 9.36711 13.8837 9.28694 13.917 9.21301C13.9503 9.13907 13.9989 9.07305 14.0596 9.01931L15.118 8.08351C15.2548 7.96207 15.354 7.80402 15.4039 7.62802C15.4538 7.45203 15.4523 7.26543 15.3995 7.09026C15.3447 6.90915 15.2384 6.74785 15.0937 6.62595C14.9489 6.50404 14.7719 6.42677 14.5841 6.40351L14.4772 6.39034C14.3288 6.37212 14.1923 6.29973 14.0939 6.18707C14.0418 6.12752 14.0095 6.05326 14.0014 5.97454C13.9933 5.89583 14.0098 5.81654 14.0487 5.74762L14.6279 4.75488C15.0453 5.03432 15.4362 5.3515 15.7956 5.70242C15.6888 5.88803 15.6261 6.09572 15.6124 6.30942C15.5954 6.64058 15.6951 6.9672 15.8942 7.23239L16.7833 8.42123C16.8037 8.44855 16.8302 8.47073 16.8607 8.48601C16.8912 8.50128 16.9249 8.50924 16.959 8.50924C16.9931 8.50924 17.0267 8.50128 17.0572 8.48601C17.0877 8.47073 17.1143 8.44855 17.1347 8.42123L17.2982 8.2026C17.4728 8.833 17.5957 9.47657 17.6658 10.1269ZM17.6724 6.96919L16.959 7.92309L16.2472 6.97127C16.1096 6.78961 16.0399 6.56549 16.0502 6.3378C16.0784 5.90485 16.426 5.45706 16.959 5.45706C17.492 5.45706 17.8396 5.90485 17.8678 6.33831C17.8803 6.56523 17.8109 6.7891 17.6723 6.96922L17.6724 6.96919Z" fill="black" fill-opacity="0.6"/>
<path d="M18.3056 6.30942C18.2586 5.58541 17.6671 5.01838 16.959 5.01838C16.6318 5.01907 16.3163 5.14068 16.0734 5.35983C15.3544 4.6575 14.4568 4.05255 13.4632 3.60286C12.3365 3.09294 11.1651 2.82341 10.0758 2.82341C9.77529 2.82615 9.47515 2.84478 9.17662 2.87921C9.19158 2.77225 9.19555 2.66403 9.18847 2.55626C9.13172 1.68357 8.41941 1 7.56683 1C6.71425 1 6.00179 1.68357 5.94519 2.55589C5.92486 2.95515 6.0452 3.3489 6.28526 3.66857L6.33056 3.72916C5.92913 3.9563 5.54235 4.20842 5.17251 4.48403C5.02311 4.32461 4.84271 4.1974 4.64237 4.11022C4.44203 4.02305 4.22599 3.97774 4.00751 3.97708C3.15489 3.97708 2.44247 4.66087 2.3859 5.53297C2.36559 5.93224 2.48593 6.32599 2.72597 6.64569L2.98753 6.99548C2.36773 8.18747 2.00002 9.63893 2.00002 10.907C1.99776 11.969 2.20498 13.021 2.60981 14.0028C3.01465 14.9845 3.60915 15.8768 4.35928 16.6286C5.10941 17.3803 6.00044 17.9767 6.98136 18.3836C7.96228 18.7905 9.01383 19 10.0758 19C11.1378 19 12.1893 18.7905 13.1703 18.3836C14.1512 17.9767 15.0422 17.3803 15.7923 16.6286C16.5425 15.8768 17.137 14.9845 17.5418 14.0028C17.9466 13.021 18.1539 11.969 18.1516 10.907C18.1516 10.007 17.9224 8.6572 17.623 7.76794L18.0236 7.23225C18.225 6.96828 18.3251 6.64086 18.3056 6.30942ZM6.38303 2.58471C6.4196 2.02159 6.87247 1.4388 7.56683 1.4388C8.26119 1.4388 8.71395 2.02144 8.75063 2.58529C8.76692 2.88034 8.67693 3.17146 8.49697 3.40584L7.56683 4.65001L6.63827 3.408C6.45965 3.1718 6.36935 2.88052 6.38303 2.58471ZM2.82386 5.56179C2.86042 4.99867 3.31326 4.41587 4.00762 4.41587C4.70197 4.41587 5.15477 4.99852 5.19141 5.56241C5.20774 5.85745 5.11774 6.14857 4.93775 6.38292L4.00751 7.62709L3.07905 6.38508C2.90045 6.14887 2.81016 5.8576 2.82386 5.56179ZM3.28174 7.389L3.83199 8.12486C3.85242 8.15219 3.87894 8.17437 3.90944 8.18965C3.93994 8.20494 3.97359 8.21289 4.00771 8.21289C4.04182 8.21289 4.07547 8.20494 4.10598 8.18965C4.13648 8.17437 4.163 8.15219 4.18343 8.12486L5.28904 6.64583C5.48484 6.39068 5.60237 6.08418 5.62738 5.76354C5.65239 5.44289 5.5838 5.12188 5.42993 4.83946C5.80157 4.56227 6.19109 4.3099 6.59596 4.084L7.39117 5.14764C7.41159 5.17496 7.43811 5.19715 7.46862 5.21243C7.49912 5.22771 7.53277 5.23567 7.56689 5.23567C7.601 5.23567 7.63465 5.22771 7.66515 5.21243C7.69566 5.19715 7.72218 5.17496 7.7426 5.14764L8.8483 3.66864C8.92556 3.56566 8.99128 3.45451 9.04425 3.33717C9.13541 3.32551 9.2265 3.31461 9.31631 3.3055L10.2378 4.63491C10.3445 4.78825 10.3996 4.97166 10.3948 5.15844C10.3901 5.34522 10.3259 5.52562 10.2116 5.67339L9.95132 6.01137C9.88782 6.09352 9.804 6.15769 9.70812 6.19755C9.61225 6.23741 9.50764 6.25158 9.40461 6.23867L9.10938 6.20093C8.90134 6.17424 8.69005 6.20929 8.50178 6.30172C8.3135 6.39416 8.15656 6.5399 8.05046 6.72083C7.99069 6.82274 7.90231 6.90485 7.79628 6.95697C7.69026 7.00908 7.57126 7.02891 7.45406 7.01398L6.77239 6.92732C6.56851 6.9008 6.36127 6.93165 6.17395 7.01641C5.98663 7.10116 5.82665 7.23646 5.71197 7.4071C5.60466 7.56563 5.54593 7.75202 5.54299 7.94343C5.54004 8.13484 5.593 8.32295 5.69537 8.48471L6.14568 9.19648C6.22867 9.32688 6.34327 9.43419 6.47884 9.50845C6.6144 9.58271 6.76654 9.6215 6.92111 9.62123C7.07086 9.62135 7.2183 9.58435 7.35025 9.51354L7.81391 9.26489C8.04106 9.14309 8.40994 9.14188 8.67581 9.25143C8.70119 9.58004 8.81894 9.89477 9.01548 10.1593L10.1214 11.6388C10.1418 11.6661 10.1683 11.6883 10.1988 11.7036C10.2293 11.7189 10.263 11.7268 10.2971 11.7268C10.3312 11.7268 10.3649 11.7189 10.3954 11.7036C10.4259 11.6883 10.4524 11.6661 10.4728 11.6388L11.0337 10.8885L11.105 10.9862C11.1354 11.0286 11.1675 11.0697 11.2013 11.1095L11.7644 11.7727C11.7895 11.8023 11.8083 11.8366 11.8197 11.8737C11.8312 11.9107 11.835 11.9497 11.8309 11.9883C11.8268 12.0268 11.8149 12.0642 11.796 12.098C11.777 12.1318 11.7514 12.1615 11.7207 12.1851L10.8673 12.8413C10.6402 13.0152 10.4731 13.2558 10.3895 13.5294L10.105 14.4527C10.0827 14.5256 10.0461 14.5932 9.99735 14.6518L9.72058 14.985C9.51441 15.2327 9.38677 15.5363 9.35397 15.8569C9.34596 15.9348 9.3171 16.0092 9.27043 16.0722C9.22377 16.1351 9.16101 16.1844 9.08876 16.2147C9.05847 16.2274 9.0257 16.2331 8.99291 16.2313C8.96012 16.2295 8.92816 16.2203 8.89943 16.2044C8.8707 16.1885 8.84593 16.1664 8.82699 16.1395C8.80806 16.1127 8.79544 16.0819 8.79008 16.0495L8.52936 14.4838C8.49682 14.2892 8.4174 14.1055 8.29797 13.9485L7.34283 12.695C7.25701 12.5825 7.19355 12.4547 7.1559 12.3183L6.84066 11.18C6.78493 10.9806 6.67857 10.799 6.5319 10.6528C6.38523 10.5066 6.20324 10.4009 6.00362 10.3458L5.9351 10.3271C5.79643 10.2891 5.66918 10.2177 5.56446 10.1192L4.97651 9.5651C4.88286 9.4769 4.80251 9.37557 4.73799 9.26427C4.60117 9.02837 4.39409 8.84109 4.14567 8.72858C3.89725 8.61608 3.6199 8.58396 3.35235 8.63672C3.34378 8.6384 3.33531 8.6406 3.32701 8.6433L2.73789 8.83494C2.87533 8.33759 3.05735 7.85365 3.28174 7.389ZM9.1134 9.07573C9.14997 8.51261 9.6028 7.92982 10.2972 7.92982C10.9915 7.92982 11.4443 8.51247 11.481 9.07636C11.4973 9.3714 11.4073 9.66251 11.2273 9.89687L10.2972 11.141L9.3686 9.89902C9.18999 9.66282 9.09971 9.37155 9.1134 9.07573ZM17.7128 10.907C17.7128 15.1224 14.2868 18.5518 10.0758 18.5518C5.86474 18.5518 2.43881 15.1224 2.43881 10.907C2.4424 10.3788 2.50132 9.85239 2.61462 9.33645L3.44954 9.06487C3.62582 9.03272 3.80773 9.05577 3.97042 9.13087C4.13311 9.20597 4.26866 9.32946 4.35854 9.48447C4.44436 9.63246 4.5512 9.7672 4.67572 9.88451L5.2637 10.4384C5.42083 10.5862 5.61173 10.6932 5.81973 10.7502L5.88826 10.7689C6.01457 10.8038 6.12971 10.8708 6.22249 10.9633C6.31527 11.0559 6.38254 11.1708 6.41777 11.2971L6.73301 12.4355C6.78552 12.6258 6.87405 12.8042 6.9938 12.9611L7.94895 14.2146C8.02513 14.3148 8.07578 14.432 8.09653 14.5561L8.35725 16.1218C8.37331 16.2196 8.41134 16.3125 8.46847 16.3935C8.52561 16.4744 8.60037 16.5414 8.68711 16.5893C8.77386 16.6372 8.87035 16.6648 8.9693 16.67C9.06826 16.6752 9.16711 16.6579 9.25842 16.6194C9.40331 16.5586 9.52916 16.4599 9.62275 16.3337C9.71633 16.2075 9.7742 16.0584 9.79028 15.9021C9.81423 15.6679 9.90743 15.4463 10.058 15.2653L10.3348 14.9322C10.4205 14.8291 10.4849 14.71 10.5242 14.5818L10.8086 13.6585C10.8657 13.4719 10.9796 13.3079 11.1345 13.1892L11.9882 12.533C12.066 12.4731 12.1309 12.3981 12.1789 12.3124C12.2269 12.2267 12.2569 12.1322 12.2673 12.0346C12.2776 11.9369 12.2681 11.8382 12.2391 11.7443C12.2102 11.6505 12.1625 11.5635 12.0989 11.4887L11.5358 10.8254C11.5095 10.7944 11.4845 10.7623 11.4608 10.7292L11.3088 10.5208L11.5787 10.1598C11.8214 9.84157 11.9421 9.44686 11.9187 9.04729C11.862 8.17459 11.1497 7.49102 10.2971 7.49102C9.52664 7.49102 8.871 8.04928 8.70978 8.8005C8.34533 8.69307 7.90898 8.7164 7.60658 8.87846L7.14292 9.12711C7.0369 9.18346 6.91354 9.19777 6.79744 9.16719C6.68134 9.13661 6.58104 9.06338 6.51654 8.96212L6.06619 8.25032C6.00946 8.1607 5.98011 8.05647 5.98175 7.95041C5.98338 7.84435 6.01591 7.74107 6.07537 7.65323C6.14476 7.54996 6.24157 7.46808 6.35492 7.41679C6.46828 7.36549 6.59369 7.34682 6.71707 7.36286L7.39874 7.44949C7.60113 7.47536 7.80667 7.44119 7.9898 7.35121C8.17294 7.26122 8.32558 7.1194 8.42877 6.94337C8.49132 6.83651 8.58393 6.7504 8.69507 6.69579C8.8062 6.64117 8.93094 6.62045 9.05376 6.63621L9.34896 6.67395C9.52798 6.69641 9.70977 6.67179 9.87637 6.60254C10.043 6.53328 10.1886 6.42178 10.299 6.27904L10.5593 5.94105C10.7306 5.71963 10.8269 5.44928 10.8339 5.16938C10.8409 4.88947 10.7585 4.61463 10.5984 4.38487L9.8241 3.26806C9.91285 3.2644 9.99732 3.26221 10.0758 3.26221C11.1033 3.26221 12.212 3.51817 13.2822 4.00264C13.6176 4.1548 13.9434 4.32697 14.2581 4.51822L13.6687 5.52844C13.5842 5.67669 13.548 5.84757 13.565 6.01735C13.5821 6.18713 13.6515 6.3474 13.7638 6.47591C13.9331 6.66989 14.1681 6.79453 14.4237 6.82592L14.5306 6.83908C14.6341 6.85191 14.7316 6.89448 14.8113 6.96165C14.891 7.02881 14.9495 7.11767 14.9797 7.21744C15.0083 7.31222 15.0091 7.41321 14.9821 7.50846C14.9552 7.60371 14.9015 7.68924 14.8274 7.75496L13.7691 8.69076C13.6618 8.78569 13.5759 8.90231 13.517 9.03292C13.4582 9.16352 13.4278 9.30513 13.4277 9.44838V9.6967C13.4274 9.84386 13.4641 9.98873 13.5345 10.118C13.6048 10.2472 13.7066 10.3567 13.8304 10.4363C13.8919 10.4758 13.9437 10.5288 13.9818 10.5912C14.0199 10.6537 14.0434 10.7239 14.0505 10.7967L14.0753 11.0446C14.0947 11.2454 14.1882 11.4316 14.3377 11.567C14.4871 11.7024 14.6817 11.7771 14.8834 11.7766H15.5028C15.7595 11.7765 16.0105 11.7017 16.2253 11.5613C16.4401 11.4209 16.6094 11.2209 16.7125 10.9859L16.7497 10.901C16.7862 10.8169 16.8456 10.7447 16.9212 10.6928C16.9968 10.6409 17.0854 10.6113 17.1771 10.6075L17.3224 10.6009C17.3461 10.5998 17.3697 10.5981 17.3932 10.5957L17.7022 10.5646C17.7091 10.6848 17.7128 10.7998 17.7128 10.907ZM17.6658 10.1269L17.3493 10.1588C17.3338 10.1604 17.3183 10.1615 17.3027 10.1622L17.1571 10.1688C16.9836 10.1761 16.8157 10.2321 16.6726 10.3304C16.5294 10.4287 16.4169 10.5653 16.3478 10.7246L16.3106 10.8095C16.2418 10.9665 16.1288 11.1 15.9853 11.1938C15.8419 11.2876 15.6742 11.3375 15.5028 11.3376H14.8833C14.7906 11.3378 14.7011 11.3034 14.6324 11.2411C14.5637 11.1789 14.5207 11.0932 14.5118 11.0009L14.487 10.7529C14.4735 10.6145 14.4289 10.4808 14.3564 10.3621C14.2838 10.2434 14.1854 10.1427 14.0683 10.0675C14.0062 10.0276 13.9552 9.97264 13.9199 9.90782C13.8847 9.84299 13.8663 9.77032 13.8664 9.69652V9.4482C13.8664 9.36711 13.8837 9.28694 13.917 9.21301C13.9503 9.13907 13.9989 9.07305 14.0596 9.01931L15.118 8.08351C15.2548 7.96207 15.354 7.80402 15.4039 7.62802C15.4538 7.45203 15.4523 7.26543 15.3995 7.09026C15.3447 6.90915 15.2384 6.74785 15.0937 6.62595C14.9489 6.50404 14.7719 6.42677 14.5841 6.40351L14.4772 6.39034C14.3288 6.37212 14.1923 6.29973 14.0939 6.18707C14.0418 6.12752 14.0095 6.05326 14.0014 5.97454C13.9933 5.89583 14.0098 5.81654 14.0487 5.74762L14.6279 4.75488C15.0453 5.03432 15.4362 5.3515 15.7956 5.70242C15.6888 5.88803 15.6261 6.09572 15.6124 6.30942C15.5954 6.64058 15.6951 6.9672 15.8942 7.23239L16.7833 8.42123C16.8037 8.44855 16.8302 8.47073 16.8607 8.48601C16.8912 8.50128 16.9249 8.50924 16.959 8.50924C16.9931 8.50924 17.0267 8.50128 17.0572 8.48601C17.0877 8.47073 17.1143 8.44855 17.1347 8.42123L17.2982 8.2026C17.4728 8.833 17.5957 9.47657 17.6658 10.1269ZM17.6724 6.96919L16.959 7.92309L16.2472 6.97127C16.1096 6.78961 16.0399 6.56549 16.0502 6.3378C16.0784 5.90485 16.426 5.45706 16.959 5.45706C17.492 5.45706 17.8396 5.90485 17.8678 6.33831C17.8803 6.56523 17.8109 6.7891 17.6723 6.96922L17.6724 6.96919Z" stroke="black" stroke-opacity="0.6" stroke-width="0.5" mask="url(#path-1-outside-1_23_133)"/>
</svg>
