<svg width="16" height="16" viewBox="0 0 16 16" fill="none" xmlns="http://www.w3.org/2000/svg">
<path d="M10.9241 8.42434C10.9799 8.36867 11.0242 8.30252 11.0544 8.22968C11.0845 8.15688 11.1 8.07884 11.1 8.00003L11 8.00003C11 7.93436 10.9871 7.86933 10.962 7.80866C10.9368 7.748 10.9 7.6929 10.8535 7.64653L10.9242 7.57582L10.9241 7.57572L5.9242 2.57584C5.9242 2.57583 5.92419 2.57583 5.92418 2.57582C5.68983 2.34134 5.31016 2.34157 5.07578 2.5758C4.84131 2.81012 4.84134 3.18983 5.07576 3.42424L9.65155 8.00003L5.07578 12.5758C5.07577 12.5758 5.07577 12.5758 5.07576 12.5758C4.84128 12.8102 4.84151 13.1898 5.07574 13.4242C5.31006 13.6587 5.68977 13.6587 5.92418 13.4242L10.9241 8.42434ZM10.9241 8.42434L10.8535 8.35353L10.9242 8.42424L10.9241 8.42434Z" fill="black" stroke="black" stroke-width="0.2"/>
</svg>
