<svg width="20" height="20" viewBox="0 0 20 20" fill="none" xmlns="http://www.w3.org/2000/svg">
<path d="M18.6201 8.72236L18.6196 8.72174L18.6195 8.72168L11.277 1.37947C10.9358 1.03814 10.4816 0.85 9.9992 0.85C9.5168 0.85 9.06253 1.03814 8.7213 1.37941L1.38255 8.71796L1.48827 8.82368L1.38254 8.71796C1.38081 8.7197 1.37721 8.72327 1.37339 8.7273C0.673884 9.43239 0.675562 10.5748 1.3783 11.2775C1.69855 11.598 2.12154 11.784 2.57351 11.8045C2.59405 11.8063 2.61455 11.8072 2.63506 11.8072H2.77756V17.0606C2.77756 18.2128 3.71485 19.15 4.86706 19.15H7.73971C8.11385 19.15 8.41705 18.8466 8.41705 18.4726V14.2363C8.41705 13.8313 8.74688 13.5015 9.15201 13.5015H10.8464C11.2515 13.5015 11.5812 13.8313 11.5812 14.2363V18.4727C11.5812 18.8466 11.8844 19.15 12.2585 19.15H15.1312C16.2835 19.15 17.2207 18.2129 17.2207 17.0606V11.8073H17.342C17.8243 11.8073 18.2786 11.6191 18.6199 11.2777L18.62 11.2777C19.324 10.5734 19.3242 9.42784 18.621 8.72313L18.621 8.72318L18.6129 8.73124L18.6202 8.7224L18.6202 8.72236L18.6202 8.72232L18.6201 8.72236ZM18.6201 8.72236C18.62 8.72217 18.6198 8.72197 18.6195 8.72177C18.6195 8.72175 18.6195 8.72173 18.6195 8.72171C18.6155 8.71777 18.6088 8.71167 18.5999 8.70555L18.521 8.82021L18.521 8.82024L18.5168 8.82623L18.6201 8.72236ZM17.6619 10.3199L17.6616 10.3202C17.6198 10.3623 17.5701 10.3957 17.5153 10.4184C17.4605 10.4411 17.4017 10.4527 17.3424 10.4526H17.342H16.5433C16.1692 10.4526 15.8659 10.7558 15.8659 11.13V17.0606C15.8659 17.4656 15.5362 17.7953 15.1311 17.7953H12.9359V14.2363C12.9359 13.0841 11.9987 12.1468 10.8463 12.1468H9.15204C7.99968 12.1468 7.0624 13.0841 7.0624 14.2363V17.7953H4.86713C4.46211 17.7953 4.13228 17.4655 4.13228 17.0606V11.1299C4.13228 10.7558 3.82904 10.4526 3.45494 10.4526H2.6749C2.66603 10.452 2.65714 10.4517 2.64825 10.4515L2.64783 10.4515C2.52933 10.4494 2.41921 10.4026 2.33652 10.3198L2.33644 10.3197C2.16075 10.1441 2.16015 9.85811 2.33481 9.68155C2.33638 9.68002 2.33786 9.67852 2.33926 9.67705L9.67938 2.33724L9.67974 2.33688C9.72151 2.29483 9.77122 2.26149 9.82599 2.2388C9.88075 2.2161 9.93947 2.20451 9.99875 2.20469H9.9992C10.1202 2.20469 10.2333 2.25149 10.319 2.33722L10.319 2.33724L17.6596 9.67772L17.6596 9.67775L17.6618 9.6799L17.6638 9.68183C17.8382 9.85865 17.8373 10.1445 17.6619 10.3199ZM2.36009 9.64927C2.36213 9.64576 2.36065 9.64885 2.35663 9.65491C2.35841 9.65214 2.35962 9.65007 2.36009 9.64927ZM2.3372 9.67911C2.33717 9.67914 2.33714 9.67917 2.33711 9.6792L2.3372 9.67911Z" fill="white" stroke="white" stroke-width="0.3"/>
</svg>
