<svg width="24" height="25" viewBox="0 0 24 25" fill="none" xmlns="http://www.w3.org/2000/svg">
<path d="M3 3.5L21 21.5" stroke="#353849" stroke-width="1.5" stroke-linecap="round" stroke-linejoin="round"/>
<path d="M10.584 11.087C10.2087 11.462 9.99775 11.9707 9.99756 12.5013C9.99737 13.0318 10.2079 13.5407 10.583 13.916C10.958 14.2913 11.4667 14.5022 11.9973 14.5024C12.5278 14.5026 13.0367 14.292 13.412 13.917" stroke="#353849" stroke-width="1.5" stroke-linecap="round" stroke-linejoin="round"/>
<path d="M9.363 5.865C10.2204 5.61972 11.1082 5.49684 12 5.5C16 5.5 19.333 7.833 22 12.5C21.222 13.861 20.388 15.024 19.497 15.988M17.357 17.849C15.726 18.949 13.942 19.5 12 19.5C8 19.5 4.667 17.167 2 12.5C3.369 10.105 4.913 8.325 6.632 7.159" stroke="#353849" stroke-width="1.5" stroke-linecap="round" stroke-linejoin="round"/>
</svg>
