<svg width="20" height="20" viewBox="0 0 20 20" fill="none" xmlns="http://www.w3.org/2000/svg">
<path d="M11.8711 0.900391L11.9473 0.907227C12.0223 0.922193 12.0915 0.959726 12.1465 1.01465L15.9209 4.78809L15.9697 4.84766C16.0123 4.91135 16.0351 4.98672 16.0352 5.06445V12.9033C16.0351 13.0068 15.9941 13.1065 15.9209 13.1797C15.8478 13.2526 15.7487 13.2939 15.6455 13.2939C15.5421 13.2939 15.4423 13.2527 15.3691 13.1797C15.296 13.1065 15.2549 13.0068 15.2549 12.9033V5.22656L11.709 1.68066H2.68066V18.3193H15.6455C15.7488 18.3194 15.8478 18.3606 15.9209 18.4336C15.9941 18.5068 16.0352 18.6064 16.0352 18.71C16.0351 18.8134 15.994 18.9122 15.9209 18.9854C15.8478 19.0585 15.7489 19.0995 15.6455 19.0996H2.29004C2.18662 19.0995 2.08778 19.0585 2.01465 18.9854C1.94152 18.9122 1.90047 18.8134 1.90039 18.71V1.29004C1.90047 1.18662 1.94152 1.08778 2.01465 1.01465C2.08778 0.941516 2.18662 0.900466 2.29004 0.900391H11.8711Z" fill="black" stroke="black" stroke-width="0.2"/>
<path d="M15.6451 5.35484H11.8709C11.794 5.35484 11.7201 5.32425 11.6657 5.2698C11.6112 5.21536 11.5806 5.14151 11.5806 5.06451V1.29032C11.5806 1.23291 11.5977 1.17679 11.6296 1.12906C11.6615 1.08133 11.7068 1.04413 11.7599 1.02216C11.8129 1.00019 11.8713 0.994439 11.9276 1.00564C11.9839 1.01683 12.0356 1.04447 12.0762 1.08506L15.8504 4.85926C15.891 4.89986 15.9186 4.95158 15.9298 5.00789C15.941 5.0642 15.9353 5.12257 15.9133 5.17561C15.8913 5.22865 15.8541 5.27399 15.8064 5.30589C15.7587 5.33779 15.7026 5.35482 15.6451 5.35484ZM12.1613 4.77419H14.9443L12.1613 1.99116V4.77419ZM12.7419 7.09677H7.22579C7.14879 7.09677 7.07494 7.06618 7.0205 7.01174C6.96605 6.95729 6.93547 6.88345 6.93547 6.80645C6.93547 6.72945 6.96605 6.65561 7.0205 6.60116C7.07494 6.54671 7.14879 6.51613 7.22579 6.51613H12.7419C12.8189 6.51613 12.8928 6.54671 12.9472 6.60116C13.0017 6.65561 13.0322 6.72945 13.0322 6.80645C13.0322 6.88345 13.0017 6.95729 12.9472 7.01174C12.8928 7.06618 12.8189 7.09677 12.7419 7.09677ZM12.7419 9.70967H7.22579C7.14879 9.70967 7.07494 9.67909 7.0205 9.62464C6.96605 9.5702 6.93547 9.49635 6.93547 9.41935C6.93547 9.34235 6.96605 9.26851 7.0205 9.21406C7.07494 9.15962 7.14879 9.12903 7.22579 9.12903H12.7419C12.8189 9.12903 12.8928 9.15962 12.9472 9.21406C13.0017 9.26851 13.0322 9.34235 13.0322 9.41935C13.0322 9.49635 13.0017 9.5702 12.9472 9.62464C12.8928 9.67909 12.8189 9.70967 12.7419 9.70967ZM12.7419 12.3226H7.22579C7.14879 12.3226 7.07494 12.292 7.0205 12.2375C6.96605 12.1831 6.93547 12.1093 6.93547 12.0323C6.93547 11.9553 6.96605 11.8814 7.0205 11.827C7.07494 11.7725 7.14879 11.7419 7.22579 11.7419H12.7419C12.8189 11.7419 12.8928 11.7725 12.9472 11.827C13.0017 11.8814 13.0322 11.9553 13.0322 12.0323C13.0322 12.1093 13.0017 12.1831 12.9472 12.2375C12.8928 12.292 12.8189 12.3226 12.7419 12.3226ZM10.7097 14.9355H7.22579C7.14879 14.9355 7.07494 14.9049 7.0205 14.8504C6.96605 14.796 6.93547 14.7222 6.93547 14.6452C6.93547 14.5682 6.96605 14.4943 7.0205 14.4399C7.07494 14.3854 7.14879 14.3548 7.22579 14.3548H10.7097C10.7867 14.3548 10.8605 14.3854 10.9149 14.4399C10.9694 14.4943 11 14.5682 11 14.6452C11 14.7222 10.9694 14.796 10.9149 14.8504C10.8605 14.9049 10.7867 14.9355 10.7097 14.9355ZM6.0645 7.67742H4.90321C4.82621 7.67742 4.75236 7.64683 4.69792 7.59238C4.64347 7.53794 4.61288 7.46409 4.61288 7.38709V6.2258C4.61288 6.14881 4.64347 6.07496 4.69792 6.02052C4.75236 5.96607 4.82621 5.93548 4.90321 5.93548H6.0645C6.1415 5.93548 6.21534 5.96607 6.26979 6.02052C6.32423 6.07496 6.35482 6.14881 6.35482 6.2258V7.38709C6.35482 7.46409 6.32423 7.53794 6.26979 7.59238C6.21534 7.64683 6.1415 7.67742 6.0645 7.67742ZM5.19353 7.09677H5.77417V6.51613H5.19353V7.09677ZM6.0645 10.2903H4.90321C4.82621 10.2903 4.75236 10.2597 4.69792 10.2053C4.64347 10.1508 4.61288 10.077 4.61288 10V8.83871C4.61288 8.76171 4.64347 8.68786 4.69792 8.63342C4.75236 8.57897 4.82621 8.54838 4.90321 8.54838H6.0645C6.1415 8.54838 6.21534 8.57897 6.26979 8.63342C6.32423 8.68786 6.35482 8.76171 6.35482 8.83871V10C6.35482 10.077 6.32423 10.1508 6.26979 10.2053C6.21534 10.2597 6.1415 10.2903 6.0645 10.2903ZM5.19353 9.70967H5.77417V9.12903H5.19353V9.70967ZM6.0645 12.9032H4.90321C4.82621 12.9032 4.75236 12.8726 4.69792 12.8182C4.64347 12.7637 4.61288 12.6899 4.61288 12.6129V11.4516C4.61288 11.3746 4.64347 11.3008 4.69792 11.2463C4.75236 11.1919 4.82621 11.1613 4.90321 11.1613H6.0645C6.1415 11.1613 6.21534 11.1919 6.26979 11.2463C6.32423 11.3008 6.35482 11.3746 6.35482 11.4516V12.6129C6.35482 12.6899 6.32423 12.7637 6.26979 12.8182C6.21534 12.8726 6.1415 12.9032 6.0645 12.9032ZM5.19353 12.3226H5.77417V11.7419H5.19353V12.3226ZM6.0645 15.5161H4.90321C4.82621 15.5161 4.75236 15.4855 4.69792 15.4311C4.64347 15.3766 4.61288 15.3028 4.61288 15.2258V14.0645C4.61288 13.9875 4.64347 13.9137 4.69792 13.8592C4.75236 13.8048 4.82621 13.7742 4.90321 13.7742H6.0645C6.1415 13.7742 6.21534 13.8048 6.26979 13.8592C6.32423 13.9137 6.35482 13.9875 6.35482 14.0645V15.2258C6.35482 15.3028 6.32423 15.3766 6.26979 15.4311C6.21534 15.4855 6.1415 15.5161 6.0645 15.5161ZM5.19353 14.9355H5.77417V14.3548H5.19353V14.9355ZM15.3548 16.9677C15.2778 16.9677 15.204 16.9371 15.1496 16.8827L13.9883 15.7214C13.9354 15.6666 13.9061 15.5933 13.9068 15.5172C13.9074 15.441 13.938 15.3682 13.9918 15.3144C14.0456 15.2606 14.1185 15.23 14.1946 15.2294C14.2707 15.2287 14.344 15.258 14.3988 15.3109L15.3548 16.2669L17.1818 14.4399C17.2366 14.387 17.3099 14.3578 17.386 14.3584C17.4622 14.3591 17.535 14.3896 17.5888 14.4434C17.6426 14.4973 17.6732 14.5701 17.6738 14.6462C17.6745 14.7223 17.6452 14.7957 17.5923 14.8504L15.5601 16.8827C15.5056 16.9371 15.4318 16.9677 15.3548 16.9677Z" fill="black"/>
<path d="M15.6452 19C15.0136 19 14.3961 18.8127 13.8709 18.4618C13.3458 18.1109 12.9364 17.6121 12.6947 17.0286C12.453 16.445 12.3898 15.8029 12.513 15.1834C12.6362 14.5639 12.9404 13.9949 13.387 13.5483C13.8336 13.1017 14.4027 12.7975 15.0221 12.6743C15.6416 12.5511 16.2838 12.6143 16.8673 12.856C17.4508 13.0977 17.9496 13.507 18.3005 14.0322C18.6514 14.5574 18.8387 15.1748 18.8387 15.8065C18.8378 16.6532 18.501 17.4649 17.9023 18.0636C17.3036 18.6623 16.4919 18.9991 15.6452 19ZM15.6452 13.1936C15.1284 13.1936 14.6232 13.3468 14.1935 13.6339C13.7638 13.921 13.4289 14.3291 13.2312 14.8066C13.0334 15.284 12.9817 15.8094 13.0825 16.3162C13.1833 16.8231 13.4322 17.2886 13.7976 17.6541C14.163 18.0195 14.6286 18.2683 15.1354 18.3692C15.6423 18.47 16.1676 18.4182 16.6451 18.2205C17.1225 18.0227 17.5306 17.6878 17.8177 17.2581C18.1048 16.8284 18.2581 16.3232 18.2581 15.8065C18.2573 15.1137 17.9818 14.4496 17.4919 13.9597C17.0021 13.4699 16.3379 13.1943 15.6452 13.1936Z" fill="black"/>
</svg>
