<svg width="22" height="23" viewBox="0 0 22 23" fill="none" xmlns="http://www.w3.org/2000/svg">
<path d="M20.6259 11.7137C20.6259 10.9224 20.5604 10.3449 20.4186 9.74597H11.1974V13.3179H16.61C16.501 14.2055 15.9117 15.5424 14.6021 16.4406L14.5838 16.5602L17.4993 18.7737L17.7013 18.7935C19.5565 17.1144 20.6259 14.644 20.6259 11.7137Z" fill="#4285F4"/>
<path d="M11.1968 21.125C13.8485 21.125 16.0747 20.2694 17.7007 18.7936L14.6015 16.4408C13.7722 17.0076 12.659 17.4033 11.1968 17.4033C8.59958 17.4033 6.39524 15.7243 5.60945 13.4036L5.49427 13.4131L2.46262 15.7125L2.42297 15.8205C4.03803 18.9647 7.35548 21.125 11.1968 21.125Z" fill="#34A853"/>
<path d="M5.61006 13.4036C5.40272 12.8047 5.28273 12.163 5.28273 11.5C5.28273 10.8369 5.40272 10.1952 5.59915 9.59636L5.59366 9.46881L2.524 7.13257L2.42357 7.17938C1.75792 8.48412 1.37598 9.94929 1.37598 11.5C1.37598 13.0507 1.75792 14.5158 2.42357 15.8205L5.61006 13.4036Z" fill="#FBBC05"/>
<path d="M11.1968 5.59664C13.041 5.59664 14.2851 6.37733 14.9944 7.02974L17.7662 4.3775C16.0639 2.82681 13.8486 1.875 11.1968 1.875C7.35551 1.875 4.03804 4.03526 2.42297 7.1794L5.59856 9.59638C6.39526 7.27569 8.59961 5.59664 11.1968 5.59664Z" fill="#EB4335"/>
</svg>
