<svg width="18" height="18" viewBox="0 0 18 18" fill="none" xmlns="http://www.w3.org/2000/svg">
<path d="M5.87721 0H2.49572C0.816279 0 0 0.780279 0 2.38605V15.614C0 17.2197 0.816279 18 2.49572 18H5.87805C7.55749 18 8.37377 17.2197 8.37377 15.614V2.38605C8.37377 0.780279 7.55749 0 5.87805 0H5.87721ZM7.11712 15.614C7.11712 16.462 6.93795 16.7442 5.87721 16.7442H2.49572C1.43498 16.7442 1.25581 16.462 1.25581 15.614V2.38605C1.25581 1.53795 1.43498 1.25581 2.49572 1.25581H5.87805C6.93879 1.25581 7.11795 1.53795 7.11795 2.38605L7.11712 15.614ZM15.5051 0H12.1236C10.4442 0 9.62791 0.780279 9.62791 2.38605V9.75349C9.62791 11.3593 10.4442 12.1395 12.1236 12.1395H15.5043C17.1837 12.1395 18 11.3593 18 9.75349V2.38605C18 0.780279 17.1846 0 15.5051 0ZM16.745 9.75349C16.745 10.6016 16.5659 10.8837 15.5051 10.8837H12.1236C11.0629 10.8837 10.8837 10.6016 10.8837 9.75349V2.38605C10.8837 1.53795 11.0629 1.25581 12.1236 1.25581H15.5043C16.565 1.25581 16.7442 1.53795 16.7442 2.38605L16.745 9.75349Z" fill="black"/>
</svg>
