<svg width="20" height="20" viewBox="0 0 20 20" fill="none" xmlns="http://www.w3.org/2000/svg">
<path d="M8.13638 1.98373L8.28873 1.98861C8.64098 2.01321 8.98317 2.12346 9.28482 2.3099C9.62952 2.52306 9.90826 2.82826 10.0895 3.19076L10.319 3.64974H17.4997L17.7155 3.66048C18.2154 3.71007 18.6851 3.93129 19.0436 4.28939L19.1891 4.44955C19.5073 4.83817 19.6832 5.3267 19.6833 5.83334V15.8333L19.6725 16.0492C19.6299 16.4775 19.4618 16.884 19.1891 17.2171L19.0436 17.3773C18.6851 17.7354 18.2154 17.9566 17.7155 18.0062L17.4997 18.0169H2.49966C1.92073 18.0168 1.3651 17.7867 0.955719 17.3773C0.546367 16.9678 0.317047 16.4123 0.317047 15.8333V4.16634C0.317133 3.58741 0.546341 3.03178 0.955719 2.6224C1.15846 2.41966 1.39981 2.25946 1.6647 2.14974C1.92946 2.0401 2.2131 1.98377 2.49966 1.98373H8.13638ZM2.49966 3.01693C2.19478 3.01702 1.90275 3.13825 1.68716 3.35384C1.47157 3.56943 1.35034 3.86146 1.35025 4.16634V15.8333C1.35025 16.1383 1.4715 16.4311 1.68716 16.6468C1.90272 16.8622 2.19494 16.9836 2.49966 16.9837H17.4997L17.6129 16.9779C17.7252 16.9668 17.8355 16.9392 17.9401 16.8958C18.0795 16.838 18.2065 16.7536 18.3131 16.6468V16.6458L18.3893 16.5619C18.557 16.3574 18.6501 16.1003 18.6501 15.8333V7.50033C18.6501 7.23315 18.5572 6.97533 18.3893 6.77084L18.3131 6.68685C18.0978 6.47109 17.8048 6.34994 17.4997 6.34994H10.8336C10.7377 6.35001 10.6428 6.32328 10.5612 6.27279C10.4797 6.2223 10.4145 6.14959 10.3717 6.0638V6.06478L9.1647 3.65267C9.06918 3.46169 8.92253 3.30106 8.74088 3.1888C8.60462 3.1046 8.45306 3.04965 8.29556 3.02767L8.13638 3.01693H2.49966ZM11.153 5.31673H17.4997C17.9018 5.31673 18.2922 5.42917 18.6305 5.63412C18.5899 5.40327 18.4811 5.18862 18.3131 5.02084V5.01986C18.2065 4.91307 18.0795 4.82863 17.9401 4.77084C17.8355 4.72749 17.7252 4.69986 17.6129 4.6888L17.4997 4.68295H10.8356L11.153 5.31673Z" fill="black" stroke="black" stroke-width="0.2"/>
</svg>
