<svg width="20" height="20" viewBox="0 0 20 20" fill="none" xmlns="http://www.w3.org/2000/svg">
<g clip-path="url(#clip0_23_138)">
<path d="M18.9827 18.6427L16.346 11.6969C16.3241 11.6392 16.2827 11.591 16.2289 11.5607L13.4205 9.9785L14.2404 8.67842C14.7436 7.87989 15.0097 6.95707 15.0097 6.00975C15.0097 3.24736 12.7623 1 9.9999 1C7.23751 1 4.99015 3.24736 4.99015 6.00975C4.99015 6.95732 5.25628 7.88017 5.75979 8.67849L6.57952 9.97857L3.77093 11.5607C3.71717 11.591 3.67573 11.6392 3.65383 11.6969L1.01711 18.6427C0.997919 18.6933 0.994787 18.7487 1.00814 18.8012C1.0215 18.8536 1.05069 18.9008 1.09176 18.9361C1.13283 18.9714 1.18378 18.9932 1.23768 18.9986C1.29158 19.0039 1.34583 18.9926 1.39304 18.966L5.63175 16.578L9.87046 18.966C9.90997 18.9882 9.95454 18.9999 9.99989 18.9999C10.0452 18.9999 10.0898 18.9882 10.1293 18.966L14.368 16.578L18.6067 18.966C18.6539 18.9926 18.7082 19.0041 18.7621 18.9987C18.8161 18.9934 18.867 18.9716 18.9081 18.9362C18.9492 18.9009 18.9784 18.8537 18.9918 18.8012C19.0051 18.7487 19.002 18.6933 18.9827 18.6427ZM10.2636 14.6656C10.4313 14.6063 10.574 14.4921 10.6686 14.3416C10.682 14.3205 12.9267 10.7615 12.9267 10.7615L14.0699 16.1406L10.2636 18.285V14.6656ZM6.20585 8.39714C5.75553 7.68312 5.51753 6.85758 5.51753 6.00972C5.51753 3.5381 7.52832 1.52731 9.99994 1.52731C12.4716 1.52731 14.4824 3.5381 14.4824 6.00972C14.4824 6.8574 14.2444 7.68301 13.7944 8.39714C13.7592 8.45293 10.285 13.9623 10.2244 14.0575C10.2238 14.0583 10.2233 14.0591 10.2228 14.06C10.1739 14.1373 10.0906 14.1835 9.99994 14.1835C9.9092 14.1835 9.82553 14.1371 9.77656 14.0601C9.74133 14.0042 6.2602 8.48394 6.20704 8.39907L6.20585 8.39714ZM4.11293 11.9733L6.57091 10.5886L6.14271 12.6032C6.13452 12.6416 6.13503 12.6814 6.14421 12.7196C6.15339 12.7579 6.17099 12.7936 6.19574 12.8241C6.22049 12.8546 6.25175 12.8793 6.28724 12.8962C6.32273 12.9131 6.36155 12.9218 6.40086 12.9218C6.46122 12.9217 6.51973 12.9009 6.56661 12.8629C6.6135 12.8249 6.64593 12.7719 6.65848 12.7129L7.07322 10.7616L9.33099 14.3423C9.42597 14.4924 9.56869 14.6063 9.7362 14.6656V18.2851L5.92994 16.1407L6.43925 13.7445C6.44645 13.7106 6.44691 13.6756 6.44061 13.6416C6.4343 13.6075 6.42135 13.5751 6.40249 13.546C6.38364 13.517 6.35924 13.4919 6.33071 13.4723C6.30218 13.4527 6.27006 13.4389 6.23619 13.4317C6.20232 13.4245 6.16736 13.424 6.1333 13.4303C6.09925 13.4366 6.06677 13.4496 6.03772 13.4684C6.00867 13.4873 5.98363 13.5117 5.96402 13.5402C5.94441 13.5688 5.93062 13.6009 5.92344 13.6348L5.39859 16.104L1.76851 18.1492L4.11293 11.9733ZM14.6012 16.104L13.429 10.5886L15.8869 11.9733L18.2314 18.1492L14.6012 16.104Z" fill="black" fill-opacity="0.6"/>
<path d="M10 0.875C12.8314 0.875053 15.1348 3.17837 15.1348 6.00977C15.1348 6.85928 14.9261 7.68988 14.5283 8.43262L14.3457 8.74512L13.5957 9.93359L16.29 11.4521L16.3457 11.4902C16.3979 11.533 16.4386 11.5886 16.4629 11.6523L19.0996 18.5986L19.1162 18.6553C19.1286 18.7134 19.128 18.7739 19.1133 18.832C19.0985 18.8903 19.07 18.944 19.0312 18.9893L18.9893 19.0312C18.9288 19.0832 18.8538 19.1152 18.7744 19.123C18.7148 19.1289 18.6552 19.1205 18.5996 19.0996L18.5449 19.0752L14.3672 16.7207L10.1904 19.0752C10.1614 19.0915 10.1305 19.1039 10.0986 19.1123L10 19.125C9.96662 19.125 9.93339 19.1207 9.90137 19.1123L9.80957 19.0752L5.63184 16.7207L1.4541 19.0752C1.38465 19.1142 1.30485 19.1309 1.22559 19.123C1.14614 19.1152 1.0703 19.0833 1.00977 19.0312C0.949276 18.9792 0.906395 18.9094 0.886719 18.832C0.867052 18.7547 0.872158 18.6732 0.900391 18.5986L3.53711 11.6523L3.56641 11.5918C3.60093 11.5338 3.65045 11.4857 3.70996 11.4521L6.40332 9.93457L5.6543 8.74512C5.13815 7.92675 4.86524 6.98083 4.86523 6.00977C4.86523 3.17833 7.16857 0.875 10 0.875ZM4.21289 12.0596L2.00781 17.8701L5.28809 16.0225L5.80078 13.6084L5.82422 13.5361C5.83423 13.5128 5.8469 13.4907 5.86133 13.4697C5.89024 13.4276 5.9269 13.3911 5.96973 13.3633C6.01243 13.3356 6.06031 13.3169 6.11035 13.3076C6.16056 13.2983 6.21276 13.2989 6.2627 13.3096H6.26172C6.31157 13.3202 6.35935 13.3403 6.40137 13.3691C6.4434 13.398 6.48002 13.4348 6.50781 13.4775C6.53561 13.5203 6.55418 13.569 6.56348 13.6191C6.56806 13.644 6.57062 13.6692 6.57031 13.6943L6.56152 13.7705L6.07031 16.0762L9.61133 18.0703V14.7451C9.50022 14.6928 9.3991 14.6224 9.31738 14.5312L9.22559 14.4092L7.13086 11.0869L6.78027 12.7393C6.7617 12.826 6.71443 12.904 6.64551 12.96C6.59362 13.002 6.5319 13.0297 6.4668 13.041L6.40137 13.0469C6.34342 13.0469 6.28571 13.0337 6.2334 13.0088C6.18115 12.9839 6.13507 12.9473 6.09863 12.9023C6.0623 12.8574 6.03597 12.8052 6.02246 12.749C6.00894 12.6927 6.00844 12.6338 6.02051 12.5771L6.39062 10.833L4.21289 12.0596ZM12.6816 11.3848C12.471 11.7187 12.1896 12.1642 11.9082 12.6104L10.7744 14.4082C10.6812 14.5565 10.546 14.671 10.3887 14.7451V18.0703L13.9277 16.0762L12.8682 11.0869C12.8156 11.1702 12.7531 11.2714 12.6816 11.3848ZM14.7109 16.0225L17.9912 17.8701L15.7861 12.0596L13.6084 10.833L14.7109 16.0225ZM10 1.65234C7.59742 1.65234 5.64258 3.60718 5.64258 6.00977C5.64259 6.73112 5.8197 7.43565 6.15723 8.06543L6.31152 8.33008L6.3125 8.33105L6.31348 8.33301H6.3125C6.36542 8.4175 9.83319 13.916 9.88184 13.9932L9.90527 14.0205C9.93103 14.0447 9.9645 14.0586 10 14.0586C10.0472 14.0586 10.0909 14.0347 10.1172 13.9932L10.1182 13.9912C10.1189 13.9901 10.1206 13.9885 10.1221 13.9863C10.2469 13.7894 13.6534 8.38565 13.6885 8.33008L13.8428 8.06543C14.1801 7.43555 14.3574 6.73099 14.3574 6.00977C14.3574 3.6072 12.4026 1.65238 10 1.65234Z" stroke="black" stroke-opacity="0.6" stroke-width="0.25"/>
<path d="M12.9003 6.00977C12.9003 4.41051 11.5992 3.10938 9.99994 3.10938C8.40068 3.10938 7.09955 4.41051 7.09955 6.00977C7.09955 7.60902 8.40068 8.91016 9.99994 8.91016C11.5992 8.91016 12.9003 7.60902 12.9003 6.00977ZM7.62689 6.00977C7.62689 4.70125 8.69142 3.63672 9.99994 3.63672C11.3085 3.63672 12.373 4.70125 12.373 6.00977C12.373 7.31828 11.3085 8.38281 9.99994 8.38281C8.69142 8.38281 7.62689 7.31828 7.62689 6.00977Z" fill="black" fill-opacity="0.6"/>
<path d="M11.6542 5.91406C11.6542 4.94913 10.8692 4.16406 9.90424 4.16406C8.9393 4.16406 8.15424 4.94913 8.15424 5.91406C8.15424 6.879 8.9393 7.66406 9.90424 7.66406C10.8692 7.66406 11.6542 6.879 11.6542 5.91406ZM8.65424 5.91406C8.65424 5.2248 9.21497 4.66406 9.90424 4.66406C10.5935 4.66406 11.1542 5.2248 11.1542 5.91406C11.1542 6.60333 10.5935 7.16406 9.90424 7.16406C9.21497 7.16406 8.65424 6.60333 8.65424 5.91406Z" fill="black" fill-opacity="0.6"/>
</g>
<defs>
<clipPath id="clip0_23_138">
<rect width="20" height="20" fill="white"/>
</clipPath>
</defs>
</svg>
