<svg width="20" height="20" viewBox="0 0 20 20" fill="none" xmlns="http://www.w3.org/2000/svg">
<path d="M17.125 1.9248C18.1999 1.9248 19.0752 2.80008 19.0752 3.875V16.625C19.0752 17.6999 18.1999 18.5752 17.125 18.5752H2.875C2.35804 18.5746 1.86262 18.3685 1.49707 18.0029C1.13153 17.6374 0.925424 17.142 0.924805 16.625V3.875C0.924805 2.80008 1.80008 1.9248 2.875 1.9248H17.125ZM2.875 2.8252C2.29617 2.8252 1.8252 3.29617 1.8252 3.875V16.625C1.8252 17.2038 2.29617 17.6748 2.875 17.6748H17.125C17.7038 17.6748 18.1748 17.2038 18.1748 16.625V3.875C18.1748 3.29617 17.7038 2.8252 17.125 2.8252H2.875Z" fill="black" stroke="black" stroke-width="0.15"/>
<path d="M18.625 13.9502C18.7377 13.9502 18.8461 13.9945 18.9258 14.0742C19.0055 14.1539 19.0498 14.2623 19.0498 14.375C19.0498 14.4877 19.0055 14.5961 18.9258 14.6758C18.8461 14.7555 18.7377 14.7998 18.625 14.7998H1.375C1.26228 14.7998 1.15392 14.7555 1.07422 14.6758C0.994516 14.5961 0.950195 14.4877 0.950195 14.375C0.950195 14.2623 0.994516 14.1539 1.07422 14.0742C1.15392 13.9945 1.26228 13.9502 1.375 13.9502H18.625ZM18.625 10.2002C18.7377 10.2002 18.8461 10.2445 18.9258 10.3242C19.0055 10.4039 19.0498 10.5123 19.0498 10.625C19.0498 10.7377 19.0055 10.8461 18.9258 10.9258C18.8461 11.0055 18.7377 11.0498 18.625 11.0498H1.375C1.26228 11.0498 1.15392 11.0055 1.07422 10.9258C0.994516 10.8461 0.950195 10.7377 0.950195 10.625C0.950195 10.5123 0.994516 10.4039 1.07422 10.3242C1.15392 10.2445 1.26228 10.2002 1.375 10.2002H18.625ZM18.625 6.4502C18.7377 6.4502 18.8461 6.49452 18.9258 6.57422C19.0055 6.65392 19.0498 6.76228 19.0498 6.875C19.0498 6.98772 19.0055 7.09608 18.9258 7.17578C18.8461 7.25548 18.7377 7.2998 18.625 7.2998H1.375C1.26228 7.2998 1.15392 7.25548 1.07422 7.17578C0.994516 7.09608 0.950195 6.98772 0.950195 6.875C0.950195 6.76228 0.994516 6.65392 1.07422 6.57422C1.15392 6.49452 1.26228 6.4502 1.375 6.4502H18.625Z" fill="black" stroke="black" stroke-width="0.1"/>
<path d="M5.875 6.4502C5.98772 6.4502 6.09608 6.49452 6.17578 6.57422C6.25548 6.65392 6.2998 6.76228 6.2998 6.875V18.125C6.2998 18.2377 6.25548 18.3461 6.17578 18.4258C6.09608 18.5055 5.98772 18.5498 5.875 18.5498C5.76228 18.5498 5.65392 18.5055 5.57422 18.4258C5.49452 18.3461 5.4502 18.2377 5.4502 18.125V6.875C5.4502 6.76228 5.49452 6.65392 5.57422 6.57422C5.65392 6.49452 5.76228 6.4502 5.875 6.4502ZM10 6.4502C10.1127 6.4502 10.2211 6.49452 10.3008 6.57422C10.3805 6.65392 10.4248 6.76228 10.4248 6.875V18.125C10.4248 18.2377 10.3805 18.3461 10.3008 18.4258C10.2211 18.5055 10.1127 18.5498 10 18.5498C9.88728 18.5498 9.77892 18.5055 9.69922 18.4258C9.61952 18.3461 9.5752 18.2377 9.5752 18.125V6.875C9.5752 6.76228 9.61952 6.65392 9.69922 6.57422C9.77892 6.49452 9.88728 6.4502 10 6.4502ZM14.125 6.4502C14.2377 6.4502 14.3461 6.49452 14.4258 6.57422C14.5055 6.65392 14.5498 6.76228 14.5498 6.875V18.125C14.5498 18.2377 14.5055 18.3461 14.4258 18.4258C14.3461 18.5055 14.2377 18.5498 14.125 18.5498C14.0123 18.5498 13.9039 18.5055 13.8242 18.4258C13.7445 18.3461 13.7002 18.2377 13.7002 18.125V6.875C13.7002 6.76228 13.7445 6.65392 13.8242 6.57422C13.9039 6.49452 14.0123 6.4502 14.125 6.4502Z" fill="black" stroke="black" stroke-width="0.1"/>
</svg>
