<svg width="20" height="20" viewBox="0 0 20 20" fill="none" xmlns="http://www.w3.org/2000/svg">
<path d="M14.5 2.875C16.0579 2.875 17.3252 4.14243 17.3252 5.7002C17.3251 6.40962 17.0559 7.07243 16.5938 7.58301C18.1303 8.36048 19.1251 9.93491 19.125 11.7002V13.5L19.1172 13.583C19.1118 13.6103 19.1034 13.6373 19.0928 13.6631C19.0714 13.7145 19.0403 13.7614 19.001 13.8008C18.9615 13.8403 18.9139 13.8712 18.8623 13.8926C18.8367 13.9032 18.8103 13.9116 18.7832 13.917L18.7002 13.9248H15.8252V16.2002L15.8164 16.2832C15.811 16.3102 15.8035 16.3368 15.793 16.3623C15.7716 16.4139 15.7397 16.4615 15.7002 16.501C15.6608 16.5403 15.6139 16.5715 15.5625 16.5928C15.5366 16.6035 15.5098 16.6118 15.4824 16.6172L15.4004 16.625H4.59961C4.54398 16.625 4.48891 16.614 4.4375 16.5928C4.38608 16.5715 4.3392 16.5403 4.2998 16.501C4.26033 16.4615 4.22838 16.4139 4.20703 16.3623C4.18582 16.3109 4.17481 16.2558 4.1748 16.2002V13.9248H1.2998C1.24415 13.9248 1.18913 13.9138 1.1377 13.8926C1.08612 13.8712 1.0385 13.8403 0.999023 13.8008C0.959686 13.7614 0.928555 13.7145 0.907227 13.6631C0.885874 13.6115 0.87498 13.5558 0.875 13.5V11.7002L0.880859 11.4697C0.936951 10.3241 1.41073 9.25221 2.22852 8.43066L2.22949 8.42969L2.37695 8.29004C2.68576 8.00899 3.03034 7.76994 3.40234 7.58008C2.94247 7.07019 2.67485 6.40817 2.6748 5.7002C2.6748 4.14244 3.9421 2.87501 5.5 2.875C6.01484 2.875 6.52128 3.01661 6.96484 3.28418L7.0332 3.33594C7.17843 3.46982 7.21517 3.69124 7.10938 3.86719V3.86816C7.05109 3.96431 6.95676 4.03343 6.84766 4.06055C6.76573 4.08082 6.67988 4.07588 6.60156 4.04785L6.52539 4.01172C6.21398 3.82394 5.8595 3.72461 5.5 3.72461C4.41123 3.72462 3.52539 4.6113 3.52539 5.7002C3.52545 6.37079 3.86062 6.98852 4.42285 7.35352H4.42383L4.60742 7.45996C5.04762 7.68336 5.56671 7.73527 6.0459 7.59863L6.12988 7.58301C6.32607 7.56769 6.51438 7.69213 6.57129 7.88965L6.57227 7.89062L6.58691 7.97266C6.59359 8.05569 6.57526 8.13999 6.53418 8.21387C6.49309 8.28754 6.43135 8.34671 6.35742 8.38477L6.2793 8.41602C6.02569 8.48855 5.76342 8.52539 5.5 8.52539C5.02743 8.52539 4.57137 8.40063 4.16211 8.17773C3.66739 8.36549 3.20766 8.65425 2.8291 9.03027L2.83008 9.03125C2.11765 9.74668 1.72461 10.6946 1.72461 11.7002V13.0752H4.22266C4.38083 11.7956 4.95355 10.6097 5.87988 9.68066L6.07129 9.5C6.48246 9.12679 6.9459 8.81373 7.44043 8.57129C6.90308 7.96659 6.5752 7.17106 6.5752 6.2998C6.57531 4.41122 8.11143 2.87502 10 2.875C11.8886 2.875 13.4247 4.41121 13.4248 6.2998L13.4209 6.47363C13.3805 7.27748 13.0599 8.00778 12.5576 8.57227C14.3189 9.43338 15.5291 11.1308 15.7734 13.0752H18.2754V11.7002C18.2754 10.122 17.3027 8.72909 15.8398 8.17578C15.484 8.37022 15.0924 8.49082 14.6846 8.51855L14.5 8.52539C14.3022 8.52539 14.1052 8.50387 13.9121 8.46289L13.7207 8.41602C13.6125 8.38512 13.5206 8.31215 13.4658 8.21387C13.4111 8.11542 13.3979 7.99896 13.4287 7.89062V7.88965L13.46 7.80957C13.5518 7.63437 13.7582 7.54217 13.9541 7.59863L14.1611 7.64551C14.6499 7.72873 15.1616 7.62578 15.5752 7.35449L15.6787 7.2832C16.1802 6.91155 16.4746 6.32892 16.4746 5.7002C16.4746 4.61129 15.5888 3.72461 14.5 3.72461C14.1853 3.72462 13.8742 3.80041 13.5928 3.94531L13.4746 4.01172C13.299 4.11726 13.0764 4.0821 12.9424 3.93652L12.8906 3.86719C12.8327 3.77073 12.8157 3.65514 12.8428 3.5459C12.8699 3.43662 12.9388 3.34243 13.0352 3.28418L13.2041 3.18945C13.6053 2.98304 14.0494 2.87501 14.5 2.875ZM11.8398 9.18359C11.3078 9.52425 10.6774 9.72461 10 9.72461C9.32304 9.7246 8.69295 9.52481 8.16113 9.18457C7.61943 9.40008 7.11027 9.7114 6.6709 10.1035L6.48047 10.2822C5.54192 11.2238 5.02545 12.473 5.02539 13.7998V15.7754H14.9746V13.7998C14.9745 11.7595 13.7221 9.93251 11.8398 9.18359ZM10 3.72461C8.58026 3.72463 7.42492 4.88022 7.4248 6.2998C7.4248 7.71946 8.58018 8.87498 10 8.875C11.4198 8.875 12.5752 7.71951 12.5752 6.2998C12.5751 4.8802 11.4198 3.72461 10 3.72461Z" fill="black" stroke="black" stroke-width="0.25"/>
</svg>
