<svg width="20" height="20" viewBox="0 0 20 20" fill="none" xmlns="http://www.w3.org/2000/svg">
<path d="M17.125 16.5H2.875C2.3779 16.4994 1.90133 16.3017 1.54983 15.9502C1.19833 15.5987 1.0006 15.1221 1 14.625L1 4.875C1 3.8415 1.8415 3 2.875 3H17.125C18.1585 3 19 3.8415 19 4.875V14.625C19 15.6585 18.1585 16.5 17.125 16.5ZM2.875 3.75C2.25475 3.75 1.75 4.25475 1.75 4.875V14.625C1.75 15.2453 2.25475 15.75 2.875 15.75H17.125C17.7453 15.75 18.25 15.2453 18.25 14.625V4.875C18.25 4.25475 17.7453 3.75 17.125 3.75H2.875Z" fill="black" fill-opacity="0.6"/>
<path d="M17.125 2.90039C18.2137 2.90039 19.0996 3.78627 19.0996 4.875V14.625C19.0996 15.7137 18.2137 16.5996 17.125 16.5996H2.875C2.35142 16.599 1.84972 16.3907 1.47949 16.0205C1.10927 15.6503 0.901018 15.1486 0.900391 14.625V4.875C0.900391 3.78627 1.78627 2.90039 2.875 2.90039H17.125ZM2.875 3.84961C2.30998 3.84961 1.84961 4.30998 1.84961 4.875V14.625C1.84961 15.19 2.30998 15.6504 2.875 15.6504H17.125C17.69 15.6504 18.1504 15.19 18.1504 14.625V4.875C18.1504 4.30998 17.69 3.84961 17.125 3.84961H2.875Z" stroke="black" stroke-opacity="0.6" stroke-width="0.2"/>
<path d="M6.625 9.75C5.5915 9.75 4.75 8.9085 4.75 7.875C4.75 6.8415 5.5915 6 6.625 6C7.6585 6 8.5 6.8415 8.5 7.875C8.5 8.9085 7.6585 9.75 6.625 9.75ZM6.625 6.75C6.00475 6.75 5.5 7.25475 5.5 7.875C5.5 8.49525 6.00475 9 6.625 9C7.24525 9 7.75 8.49525 7.75 7.875C7.75 7.25475 7.24525 6.75 6.625 6.75ZM9.625 13.5C9.52554 13.5 9.43016 13.4605 9.35983 13.3902C9.28951 13.3198 9.25 13.2245 9.25 13.125V12.375C9.25 11.7548 8.74525 11.25 8.125 11.25H5.125C4.50475 11.25 4 11.7548 4 12.375V13.125C4 13.2245 3.96049 13.3198 3.89016 13.3902C3.81984 13.4605 3.72446 13.5 3.625 13.5C3.52554 13.5 3.43016 13.4605 3.35984 13.3902C3.28951 13.3198 3.25 13.2245 3.25 13.125V12.375C3.25 11.3415 4.0915 10.5 5.125 10.5H8.125C9.1585 10.5 10 11.3415 10 12.375V13.125C10 13.2245 9.96049 13.3198 9.89017 13.3902C9.81984 13.4605 9.72446 13.5 9.625 13.5ZM16.375 7.5H11.875C11.7755 7.5 11.6802 7.46049 11.6098 7.39017C11.5395 7.31984 11.5 7.22446 11.5 7.125C11.5 7.02554 11.5395 6.93016 11.6098 6.85983C11.6802 6.78951 11.7755 6.75 11.875 6.75H16.375C16.4745 6.75 16.5698 6.78951 16.6402 6.85983C16.7105 6.93016 16.75 7.02554 16.75 7.125C16.75 7.22446 16.7105 7.31984 16.6402 7.39017C16.5698 7.46049 16.4745 7.5 16.375 7.5ZM16.375 10.5H11.875C11.7755 10.5 11.6802 10.4605 11.6098 10.3902C11.5395 10.3198 11.5 10.2245 11.5 10.125C11.5 10.0255 11.5395 9.93016 11.6098 9.85983C11.6802 9.78951 11.7755 9.75 11.875 9.75H16.375C16.4745 9.75 16.5698 9.78951 16.6402 9.85983C16.7105 9.93016 16.75 10.0255 16.75 10.125C16.75 10.2245 16.7105 10.3198 16.6402 10.3902C16.5698 10.4605 16.4745 10.5 16.375 10.5ZM16.375 13.5H11.875C11.7755 13.5 11.6802 13.4605 11.6098 13.3902C11.5395 13.3198 11.5 13.2245 11.5 13.125C11.5 13.0255 11.5395 12.9302 11.6098 12.8598C11.6802 12.7895 11.7755 12.75 11.875 12.75H16.375C16.4745 12.75 16.5698 12.7895 16.6402 12.8598C16.7105 12.9302 16.75 13.0255 16.75 13.125C16.75 13.2245 16.7105 13.3198 16.6402 13.3902C16.5698 13.4605 16.4745 13.5 16.375 13.5Z" fill="black" fill-opacity="0.6"/>
<path d="M8.125 10.4248C9.19992 10.4248 10.0752 11.3001 10.0752 12.375V13.125C10.0752 13.2443 10.0278 13.359 9.94336 13.4434C9.85897 13.5278 9.74435 13.5752 9.625 13.5752C9.50565 13.5752 9.39103 13.5278 9.30664 13.4434C9.22225 13.359 9.1748 13.2443 9.1748 13.125V12.375C9.1748 11.7962 8.70383 11.3252 8.125 11.3252H5.125C4.54617 11.3252 4.0752 11.7962 4.0752 12.375V13.125C4.0752 13.2443 4.02775 13.359 3.94336 13.4434C3.85897 13.5278 3.74435 13.5752 3.625 13.5752C3.50565 13.5752 3.39103 13.5278 3.30664 13.4434C3.22225 13.359 3.1748 13.2443 3.1748 13.125V12.375C3.1748 11.3001 4.05008 10.4248 5.125 10.4248H8.125ZM16.375 12.6748C16.4943 12.6748 16.609 12.7222 16.6934 12.8066C16.7778 12.891 16.8252 13.0057 16.8252 13.125C16.8252 13.2443 16.7778 13.359 16.6934 13.4434C16.609 13.5278 16.4943 13.5752 16.375 13.5752H11.875C11.7557 13.5752 11.641 13.5278 11.5566 13.4434C11.4722 13.359 11.4248 13.2443 11.4248 13.125C11.4248 13.0057 11.4722 12.891 11.5566 12.8066C11.641 12.7222 11.7557 12.6748 11.875 12.6748H16.375ZM16.375 9.6748C16.4943 9.6748 16.609 9.72225 16.6934 9.80664C16.7778 9.89103 16.8252 10.0057 16.8252 10.125C16.8252 10.2443 16.7778 10.359 16.6934 10.4434C16.609 10.5278 16.4943 10.5752 16.375 10.5752H11.875C11.7557 10.5752 11.641 10.5278 11.5566 10.4434C11.4722 10.359 11.4248 10.2443 11.4248 10.125C11.4248 10.0057 11.4722 9.89103 11.5566 9.80664C11.641 9.72225 11.7557 9.6748 11.875 9.6748H16.375ZM6.625 5.9248C7.69992 5.9248 8.5752 6.80008 8.5752 7.875C8.5752 8.94992 7.69992 9.8252 6.625 9.8252C5.55008 9.8252 4.6748 8.94992 4.6748 7.875C4.6748 6.80008 5.55008 5.9248 6.625 5.9248ZM6.625 6.8252C6.04617 6.8252 5.5752 7.29617 5.5752 7.875C5.5752 8.45383 6.04617 8.9248 6.625 8.9248C7.20383 8.9248 7.6748 8.45383 7.6748 7.875C7.6748 7.29617 7.20383 6.8252 6.625 6.8252ZM16.375 6.6748C16.4943 6.6748 16.609 6.72225 16.6934 6.80664C16.7778 6.89103 16.8252 7.00565 16.8252 7.125C16.8252 7.24435 16.7778 7.35897 16.6934 7.44336C16.609 7.52775 16.4943 7.5752 16.375 7.5752H11.875C11.7557 7.5752 11.641 7.52775 11.5566 7.44336C11.4722 7.35897 11.4248 7.24435 11.4248 7.125C11.4248 7.00565 11.4722 6.89103 11.5566 6.80664C11.641 6.72225 11.7557 6.6748 11.875 6.6748H16.375Z" stroke="black" stroke-opacity="0.6" stroke-width="0.15"/>
</svg>
