<svg width="12" height="8" viewBox="0 0 12 8" fill="none" xmlns="http://www.w3.org/2000/svg">
<path d="M6.5901 7.07605L11.1399 2.11561C11.6769 1.53198 11.2405 0.615357 10.4256 0.615357H1.32595C1.14357 0.615208 0.965015 0.665203 0.811663 0.759357C0.65831 0.85351 0.536661 0.98783 0.461285 1.14623C0.385907 1.30463 0.359997 1.4804 0.386656 1.65249C0.413315 1.82457 0.491414 1.98568 0.6116 2.11652L5.16141 7.07514C5.25045 7.17233 5.36027 7.25023 5.48347 7.3036C5.60668 7.35697 5.74044 7.38459 5.87576 7.38459C6.01108 7.38459 6.14483 7.35697 6.26804 7.3036C6.39125 7.25023 6.50106 7.17233 6.5901 7.07514V7.07605Z" fill="black"/>
</svg>
