<svg width="197" height="171" viewBox="0 0 197 171" fill="none" xmlns="http://www.w3.org/2000/svg">
<path fill-rule="evenodd" clip-rule="evenodd" d="M50.0611 25.7111L0.757812 34.0288L17.3932 132.635L66.6965 124.318C39.4671 128.911 21.1172 154.71 25.7109 181.939L34.0286 231.242L132.635 214.607L124.317 165.303C128.911 192.533 154.709 210.883 181.938 206.289L231.242 197.971L214.606 99.3647L165.303 107.682C192.532 103.089 210.882 77.2908 206.289 50.0614L197.971 0.758053L99.3644 17.3934L107.682 66.6967C103.088 39.4673 77.2905 21.1174 50.0611 25.7111ZM116 116L66.6965 124.318C93.9259 119.724 119.724 138.074 124.317 165.303L116 116ZM116 116L107.682 66.6967C112.276 93.9262 138.074 112.276 165.303 107.682L116 116Z" fill="#FFE4DB"/>
</svg>
