<svg width="20" height="18" viewBox="0 0 20 18" fill="none" xmlns="http://www.w3.org/2000/svg">
<path d="M14.1666 11.0833V8.57866C14.1666 8.4291 14.1666 8.35431 14.1439 8.28829C14.1237 8.22991 14.0908 8.17673 14.0476 8.1326C13.9988 8.08271 13.9319 8.04927 13.7981 7.98238L9.99996 6.08331M3.33329 6.91664V12.5888C3.33329 12.8987 3.33329 13.0537 3.38164 13.1894C3.42438 13.3093 3.49404 13.4179 3.58527 13.5067C3.68847 13.6072 3.82935 13.6718 4.11109 13.8009L9.44442 16.2454C9.64878 16.339 9.75096 16.3859 9.85741 16.4043C9.95174 16.4207 10.0482 16.4207 10.1425 16.4043C10.249 16.3859 10.3511 16.339 10.5555 16.2454L15.8888 13.8009C16.1706 13.6718 16.3114 13.6072 16.4146 13.5067C16.5059 13.4179 16.5755 13.3093 16.6183 13.1894C16.6666 13.0537 16.6666 12.8987 16.6666 12.5888V6.91664M1.66663 6.08331L9.70182 2.06571C9.81114 2.01105 9.86579 1.98372 9.92313 1.97297C9.97391 1.96344 10.026 1.96344 10.0768 1.97297C10.1341 1.98372 10.1888 2.01105 10.2981 2.06571L18.3333 6.08331L10.2981 10.1009C10.1888 10.1556 10.1341 10.1829 10.0768 10.1936C10.026 10.2032 9.97391 10.2032 9.92313 10.1936C9.86579 10.1829 9.81114 10.1556 9.70182 10.1009L1.66663 6.08331Z" stroke="#808897" stroke-width="2" stroke-linecap="round" stroke-linejoin="round"/>
</svg>
