<svg width="18" height="20" viewBox="0 0 18 20" fill="none" xmlns="http://www.w3.org/2000/svg">
<path d="M4.41667 16.6667H3.16667C2.24619 16.6667 1.5 15.9206 1.5 15.0001V3.33341C1.5 2.41294 2.24619 1.66675 3.16667 1.66675H14.8333C15.7538 1.66675 16.5 2.41294 16.5 3.33341V15.0001C16.5 15.9206 15.7538 16.6667 14.8333 16.6667H13.5833M9 15.8334C10.3807 15.8334 11.5 14.7141 11.5 13.3334C11.5 11.9527 10.3807 10.8334 9 10.8334C7.61929 10.8334 6.5 11.9527 6.5 13.3334C6.5 14.7141 7.61929 15.8334 9 15.8334ZM9 15.8334L9.01787 15.8332L6.35723 18.4939L4.0002 16.1369L6.51638 13.6207M9 15.8334L11.6607 18.4939L14.0177 16.1369L11.5015 13.6207M6.5 5.00008H11.5M4.83333 7.91675H13.1667" stroke="#808897" stroke-width="2" stroke-linecap="round" stroke-linejoin="round"/>
</svg>
