<svg width="20" height="21" viewBox="0 0 20 21" fill="none" xmlns="http://www.w3.org/2000/svg">
<path d="M10.0001 17.1667C10.4603 17.1667 10.8334 16.7936 10.8334 16.3333C10.8334 15.8731 10.4603 15.5 10.0001 15.5C9.53984 15.5 9.16675 15.8731 9.16675 16.3333C9.16675 16.7936 9.53984 17.1667 10.0001 17.1667Z" stroke="#808897" stroke-width="2" stroke-linecap="round" stroke-linejoin="round"/>
<path d="M10.0001 11.3332C10.4603 11.3332 10.8334 10.9601 10.8334 10.4998C10.8334 10.0396 10.4603 9.6665 10.0001 9.6665C9.53984 9.6665 9.16675 10.0396 9.16675 10.4998C9.16675 10.9601 9.53984 11.3332 10.0001 11.3332Z" stroke="#808897" stroke-width="2" stroke-linecap="round" stroke-linejoin="round"/>
<path d="M10.0001 5.49992C10.4603 5.49992 10.8334 5.12682 10.8334 4.66659C10.8334 4.20635 10.4603 3.83325 10.0001 3.83325C9.53984 3.83325 9.16675 4.20635 9.16675 4.66659C9.16675 5.12682 9.53984 5.49992 10.0001 5.49992Z" stroke="#808897" stroke-width="2" stroke-linecap="round" stroke-linejoin="round"/>
</svg>
