<svg width="10" height="14" viewBox="0 0 10 14" fill="none" xmlns="http://www.w3.org/2000/svg">
<path d="M3.25008 10.7917H6.75008M1.85008 1.16675H8.15008C8.47678 1.16675 8.64013 1.16675 8.76491 1.23033C8.87467 1.28625 8.96391 1.37549 9.01983 1.48525C9.08341 1.61004 9.08341 1.77338 9.08341 2.10008V3.31022C9.08341 3.59557 9.08341 3.73825 9.05118 3.87252C9.0226 3.99156 8.97546 4.10536 8.91149 4.20975C8.83935 4.32748 8.73846 4.42837 8.53668 4.63015L6.82671 6.34012C6.5957 6.57113 6.4802 6.68663 6.43692 6.81982C6.39886 6.93698 6.39886 7.06318 6.43692 7.18034C6.4802 7.31353 6.5957 7.42904 6.82671 7.66005L8.53668 9.37001C8.73846 9.57179 8.83935 9.67268 8.91149 9.79042C8.97546 9.8948 9.0226 10.0086 9.05118 10.1276C9.08341 10.2619 9.08341 10.4046 9.08341 10.6899V11.9001C9.08341 12.2268 9.08341 12.3901 9.01983 12.5149C8.96391 12.6247 8.87467 12.7139 8.76491 12.7698C8.64013 12.8334 8.47678 12.8334 8.15008 12.8334H1.85008C1.52338 12.8334 1.36004 12.8334 1.23525 12.7698C1.12549 12.7139 1.03625 12.6247 0.980328 12.5149C0.916748 12.3901 0.916748 12.2268 0.916748 11.9001V10.6899C0.916748 10.4046 0.916748 10.2619 0.948983 10.1276C0.977563 10.0086 1.0247 9.8948 1.08867 9.79042C1.16082 9.67268 1.26171 9.57179 1.46348 9.37001L3.17345 7.66005C3.40446 7.42904 3.51996 7.31353 3.56324 7.18034C3.60131 7.06318 3.60131 6.93698 3.56324 6.81982C3.51996 6.68663 3.40445 6.57112 3.17345 6.34012L1.46348 4.63015C1.26171 4.42837 1.16082 4.32748 1.08867 4.20975C1.0247 4.10536 0.977563 3.99156 0.948983 3.87252C0.916748 3.73825 0.916748 3.59557 0.916748 3.31022V2.10008C0.916748 1.77338 0.916748 1.61004 0.980328 1.48525C1.03625 1.37549 1.12549 1.28625 1.23525 1.23033C1.36004 1.16675 1.52338 1.16675 1.85008 1.16675Z" stroke="#FF784B" stroke-width="1.5" stroke-linecap="round" stroke-linejoin="round"/>
</svg>
