<svg width="16" height="20" viewBox="0 0 16 20" fill="none" xmlns="http://www.w3.org/2000/svg">
<path d="M14.9998 15.8334V13.3334H4.1665C2.78579 13.3334 1.6665 14.4527 1.6665 15.8334M5.6665 18.3334H12.3332C13.2666 18.3334 13.7333 18.3334 14.0898 18.1518C14.4034 17.992 14.6584 17.737 14.8182 17.4234C14.9998 17.0669 14.9998 16.6002 14.9998 15.6667V4.33341C14.9998 3.39999 14.9998 2.93328 14.8182 2.57676C14.6584 2.26316 14.4034 2.00819 14.0898 1.8484C13.7333 1.66675 13.2666 1.66675 12.3332 1.66675H5.6665C4.26637 1.66675 3.56631 1.66675 3.03153 1.93923C2.56112 2.17892 2.17867 2.56137 1.93899 3.03177C1.6665 3.56655 1.6665 4.26662 1.6665 5.66675V14.3334C1.6665 15.7335 1.6665 16.4336 1.93899 16.9684C2.17867 17.4388 2.56112 17.8212 3.03153 18.0609C3.56631 18.3334 4.26637 18.3334 5.6665 18.3334Z" stroke="white" stroke-width="2" stroke-linecap="round" stroke-linejoin="round"/>
</svg>
